<svg width="180" height="102" viewBox="0 0 180 102" fill="none" xmlns="http://www.w3.org/2000/svg">
<path d="M41.0079 21.78V60.484H47.5679V68.52H41.0079V80H32.3159V68.52H2.46794V60.484L31.3319 21.78H41.0079ZM12.6359 60.484H32.3159V34.162L12.6359 60.484Z" fill="#09090B"/>
<path d="M90 21C84.0666 21 78.2664 22.7595 73.3329 26.0559C68.3994 29.3524 64.5543 34.0377 62.2836 39.5195C60.013 45.0013 59.4189 51.0333 60.5765 56.8527C61.734 62.6721 64.5912 68.0176 68.7868 72.2132C72.9824 76.4088 78.3279 79.266 84.1473 80.4236C89.9667 81.5811 95.9987 80.987 101.481 78.7164C106.962 76.4458 111.648 72.6006 114.944 67.6671C118.241 62.7336 120 56.9334 120 51C120 47.0603 119.224 43.1593 117.716 39.5195C116.209 35.8797 113.999 32.5726 111.213 29.7868C108.427 27.001 105.12 24.7913 101.481 23.2836C97.8408 21.776 93.9397 21 90 21ZM90 66C89.4067 66 88.8267 65.8241 88.3333 65.4944C87.84 65.1648 87.4554 64.6962 87.2284 64.148C87.0013 63.5999 86.9419 62.9967 87.0577 62.4147C87.1734 61.8328 87.4591 61.2982 87.8787 60.8787C88.2983 60.4591 88.8328 60.1734 89.4147 60.0576C89.9967 59.9419 90.5999 60.0013 91.1481 60.2284C91.6962 60.4554 92.1648 60.8399 92.4944 61.3333C92.8241 61.8266 93 62.4067 93 63C93 63.7957 92.6839 64.5587 92.1213 65.1213C91.5587 65.6839 90.7957 66 90 66ZM93 54C93 54.7957 92.6839 55.5587 92.1213 56.1213C91.5587 56.6839 90.7957 57 90 57C89.2044 57 88.4413 56.6839 87.8787 56.1213C87.3161 55.5587 87 54.7957 87 54V39C87 38.2044 87.3161 37.4413 87.8787 36.8787C88.4413 36.3161 89.2044 36 90 36C90.7957 36 91.5587 36.3161 92.1213 36.8787C92.6839 37.4413 93 38.2044 93 39V54Z" fill="#D26300"/>
<path d="M138.992 21.78V60.484H132.432V68.52H138.992V80H147.684V68.52H177.532V60.484L148.668 21.78H138.992ZM167.364 60.484H147.684V34.162L167.364 60.484Z" fill="#09090B"/>
</svg>
