<svg width="564" height="690" viewBox="0 0 564 690" fill="none" xmlns="http://www.w3.org/2000/svg">
<g clip-path="url(#clip0_654_3821)">
<g filter="url(#filter0_ddi_654_3821)">
<g clip-path="url(#clip1_654_3821)">
<rect x="64" y="96" width="799.2" height="499.5" rx="12" fill="white" fill-opacity="0.01" shape-rendering="crispEdges"/>
<g filter="url(#filter1_d_654_3821)">
<path d="M64 108C64 101.373 69.3726 96 76 96H214.96V595.5H76C69.3726 595.5 64 590.127 64 583.5V108Z" fill="#FBFBFB" shape-rendering="crispEdges"/>
<rect x="64" y="96" width="150.96" height="64.93" rx="12" fill="#FBFBFB"/>
<g clip-path="url(#clip2_654_3821)">
<rect x="70.6602" y="102.66" width="13.32" height="13.32" fill="#266DF0"/>
</g>
<g clip-path="url(#clip3_654_3821)">
<g clip-path="url(#clip4_654_3821)">
<g clip-path="url(#clip5_654_3821)">
<path d="M92.6367 112.77L90.8141 106.312H92.0723L93.2359 111.058H93.2958L94.5382 106.312H95.6829L96.9285 111.061H96.9853L98.1489 106.312H99.4071L97.5844 112.77H96.4303L95.1374 108.239H95.0869L93.7909 112.77H92.6367ZM101.466 112.865C100.993 112.865 100.583 112.761 100.237 112.552C99.8896 112.344 99.6206 112.053 99.4292 111.679C99.24 111.305 99.1454 110.867 99.1454 110.367C99.1454 109.867 99.24 109.428 99.4292 109.052C99.6206 108.676 99.8896 108.384 100.237 108.176C100.583 107.967 100.993 107.863 101.466 107.863C101.939 107.863 102.349 107.967 102.696 108.176C103.043 108.384 103.311 108.676 103.5 109.052C103.692 109.428 103.787 109.867 103.787 110.367C103.787 110.867 103.692 111.305 103.5 111.679C103.311 112.053 103.043 112.344 102.696 112.552C102.349 112.761 101.939 112.865 101.466 112.865ZM101.473 111.95C101.729 111.95 101.944 111.88 102.116 111.739C102.288 111.596 102.417 111.405 102.501 111.165C102.587 110.925 102.63 110.658 102.63 110.364C102.63 110.068 102.587 109.8 102.501 109.56C102.417 109.318 102.288 109.126 102.116 108.983C101.944 108.84 101.729 108.768 101.473 108.768C101.21 108.768 100.991 108.84 100.817 108.983C100.644 109.126 100.515 109.318 100.429 109.56C100.345 109.8 100.303 110.068 100.303 110.364C100.303 110.658 100.345 110.925 100.429 111.165C100.515 111.405 100.644 111.596 100.817 111.739C100.991 111.88 101.21 111.95 101.473 111.95ZM104.436 112.77V107.926H105.543V108.734H105.593C105.682 108.454 105.833 108.239 106.048 108.087C106.264 107.934 106.511 107.857 106.789 107.857C106.852 107.857 106.922 107.86 107 107.866C107.08 107.871 107.146 107.878 107.199 107.889V108.939C107.15 108.922 107.073 108.907 106.968 108.894C106.865 108.88 106.765 108.872 106.669 108.872C106.461 108.872 106.274 108.918 106.107 109.008C105.943 109.096 105.814 109.219 105.72 109.377C105.625 109.535 105.578 109.716 105.578 109.922V112.77H104.436ZM108.678 111.25L108.674 109.872H108.857L110.598 107.926H111.932L109.791 110.31H109.554L108.678 111.25ZM107.637 112.77V106.312H108.778V112.77H107.637ZM110.677 112.77L109.1 110.566L109.87 109.762L112.042 112.77H110.677ZM116.201 109.207L115.16 109.32C115.131 109.215 115.079 109.116 115.006 109.024C114.934 108.931 114.838 108.857 114.716 108.8C114.594 108.743 114.444 108.715 114.268 108.715C114.03 108.715 113.831 108.766 113.669 108.869C113.509 108.972 113.43 109.106 113.432 109.27C113.43 109.411 113.482 109.525 113.587 109.613C113.694 109.702 113.87 109.774 114.116 109.831L114.943 110.008C115.401 110.106 115.742 110.263 115.964 110.477C116.189 110.692 116.303 110.973 116.305 111.319C116.303 111.624 116.213 111.893 116.037 112.127C115.862 112.358 115.62 112.539 115.308 112.669C114.997 112.799 114.64 112.865 114.236 112.865C113.643 112.865 113.166 112.741 112.805 112.493C112.443 112.242 112.228 111.894 112.158 111.449L113.271 111.342C113.322 111.56 113.429 111.725 113.593 111.837C113.757 111.948 113.97 112.004 114.233 112.004C114.504 112.004 114.722 111.948 114.886 111.837C115.052 111.725 115.135 111.587 115.135 111.424C115.135 111.285 115.081 111.17 114.974 111.08C114.869 110.989 114.705 110.92 114.482 110.872L113.656 110.698C113.191 110.602 112.848 110.439 112.625 110.209C112.402 109.978 112.292 109.686 112.294 109.333C112.292 109.034 112.373 108.776 112.537 108.557C112.703 108.336 112.933 108.166 113.227 108.046C113.524 107.924 113.865 107.863 114.252 107.863C114.82 107.863 115.266 107.984 115.592 108.226C115.92 108.468 116.123 108.795 116.201 109.207ZM116.926 114.586V107.926H118.049V108.727H118.115C118.174 108.61 118.257 108.485 118.364 108.352C118.471 108.218 118.616 108.103 118.799 108.008C118.982 107.912 119.216 107.863 119.499 107.863C119.874 107.863 120.211 107.959 120.512 108.15C120.814 108.339 121.054 108.62 121.231 108.992C121.409 109.362 121.499 109.816 121.499 110.355C121.499 110.886 121.411 111.338 121.237 111.71C121.062 112.083 120.825 112.366 120.524 112.562C120.224 112.757 119.883 112.855 119.503 112.855C119.225 112.855 118.995 112.809 118.812 112.716C118.629 112.624 118.482 112.512 118.37 112.382C118.261 112.25 118.176 112.125 118.115 112.007H118.068V114.586H116.926ZM118.046 110.348C118.046 110.661 118.09 110.936 118.178 111.171C118.269 111.407 118.398 111.591 118.566 111.723C118.736 111.853 118.942 111.919 119.184 111.919C119.436 111.919 119.648 111.851 119.818 111.717C119.988 111.58 120.116 111.394 120.203 111.159C120.291 110.921 120.335 110.651 120.335 110.348C120.335 110.048 120.292 109.781 120.206 109.547C120.12 109.314 119.991 109.131 119.821 108.999C119.651 108.866 119.438 108.8 119.184 108.8C118.94 108.8 118.733 108.864 118.563 108.992C118.393 109.12 118.263 109.3 118.175 109.531C118.089 109.763 118.046 110.035 118.046 110.348ZM123.55 112.868C123.243 112.868 122.967 112.813 122.721 112.704C122.477 112.592 122.283 112.428 122.14 112.212C122 111.995 121.929 111.728 121.929 111.411C121.929 111.138 121.98 110.912 122.081 110.733C122.181 110.554 122.319 110.411 122.494 110.304C122.668 110.197 122.865 110.116 123.083 110.061C123.304 110.004 123.532 109.963 123.768 109.938C124.051 109.909 124.282 109.883 124.458 109.859C124.635 109.834 124.763 109.796 124.843 109.746C124.925 109.693 124.966 109.612 124.966 109.503V109.484C124.966 109.247 124.895 109.063 124.755 108.932C124.614 108.802 124.411 108.737 124.146 108.737C123.866 108.737 123.645 108.798 123.481 108.92C123.319 109.042 123.209 109.186 123.153 109.352L122.087 109.2C122.171 108.906 122.31 108.66 122.503 108.462C122.697 108.263 122.933 108.113 123.213 108.015C123.492 107.914 123.801 107.863 124.14 107.863C124.373 107.863 124.605 107.891 124.837 107.945C125.068 108 125.279 108.09 125.47 108.216C125.662 108.341 125.815 108.51 125.931 108.724C126.049 108.939 126.107 109.207 126.107 109.528V112.77H125.01V112.105H124.972C124.903 112.239 124.805 112.365 124.679 112.483C124.555 112.599 124.398 112.692 124.209 112.764C124.022 112.833 123.802 112.868 123.55 112.868ZM123.846 112.029C124.076 112.029 124.274 111.984 124.442 111.893C124.611 111.801 124.74 111.679 124.83 111.528C124.923 111.376 124.969 111.211 124.969 111.032V110.462C124.933 110.491 124.872 110.518 124.786 110.544C124.702 110.569 124.607 110.591 124.502 110.61C124.397 110.629 124.293 110.646 124.19 110.66C124.087 110.675 123.998 110.688 123.922 110.698C123.752 110.721 123.599 110.759 123.465 110.812C123.33 110.864 123.224 110.938 123.146 111.032C123.069 111.125 123.03 111.245 123.03 111.392C123.03 111.602 123.106 111.761 123.26 111.868C123.413 111.975 123.609 112.029 123.846 112.029ZM129.048 112.865C128.565 112.865 128.149 112.758 127.802 112.546C127.458 112.334 127.192 112.041 127.005 111.666C126.82 111.29 126.727 110.857 126.727 110.367C126.727 109.875 126.822 109.441 127.011 109.065C127.2 108.686 127.467 108.392 127.812 108.182C128.159 107.969 128.569 107.863 129.042 107.863C129.435 107.863 129.783 107.936 130.086 108.081C130.39 108.224 130.633 108.427 130.814 108.69C130.995 108.95 131.098 109.255 131.123 109.604H130.032C129.988 109.371 129.883 109.176 129.717 109.021C129.553 108.863 129.333 108.784 129.058 108.784C128.824 108.784 128.619 108.847 128.443 108.973C128.266 109.097 128.128 109.276 128.03 109.509C127.933 109.743 127.884 110.022 127.884 110.348C127.884 110.678 127.933 110.962 128.03 111.2C128.126 111.435 128.262 111.617 128.436 111.745C128.613 111.871 128.82 111.934 129.058 111.934C129.226 111.934 129.376 111.903 129.508 111.84C129.643 111.775 129.755 111.681 129.846 111.559C129.936 111.437 129.998 111.289 130.032 111.114H131.123C131.096 111.457 130.995 111.761 130.82 112.026C130.646 112.289 130.408 112.495 130.108 112.644C129.807 112.791 129.454 112.865 129.048 112.865ZM133.885 112.865C133.399 112.865 132.98 112.764 132.626 112.562C132.275 112.358 132.005 112.07 131.816 111.698C131.627 111.324 131.532 110.883 131.532 110.377C131.532 109.878 131.627 109.441 131.816 109.065C132.007 108.686 132.274 108.392 132.617 108.182C132.96 107.969 133.362 107.863 133.825 107.863C134.123 107.863 134.405 107.912 134.67 108.008C134.937 108.103 135.172 108.25 135.376 108.45C135.582 108.65 135.744 108.904 135.862 109.213C135.98 109.52 136.038 109.886 136.038 110.31V110.66H132.068V109.891H134.944C134.942 109.672 134.895 109.478 134.802 109.308C134.71 109.135 134.581 109 134.414 108.901C134.25 108.802 134.059 108.753 133.841 108.753C133.607 108.753 133.402 108.809 133.226 108.923C133.049 109.034 132.911 109.181 132.813 109.364C132.716 109.545 132.666 109.744 132.664 109.96V110.632C132.664 110.914 132.716 111.155 132.819 111.357C132.922 111.557 133.066 111.71 133.251 111.818C133.436 111.923 133.652 111.975 133.9 111.975C134.067 111.975 134.217 111.952 134.351 111.906C134.486 111.858 134.603 111.787 134.701 111.695C134.8 111.602 134.875 111.488 134.925 111.351L135.991 111.471C135.924 111.753 135.796 111.998 135.606 112.209C135.419 112.417 135.18 112.579 134.887 112.694C134.595 112.808 134.261 112.865 133.885 112.865ZM140.986 107.926V108.809H138.201V107.926H140.986ZM138.888 106.766H140.03V111.313C140.03 111.467 140.053 111.584 140.099 111.666C140.148 111.746 140.211 111.801 140.289 111.83C140.366 111.86 140.453 111.874 140.547 111.874C140.619 111.874 140.684 111.869 140.743 111.859C140.804 111.848 140.85 111.839 140.881 111.83L141.074 112.723C141.013 112.744 140.926 112.767 140.812 112.792C140.701 112.817 140.564 112.832 140.402 112.836C140.116 112.845 139.859 112.802 139.63 112.707C139.4 112.61 139.219 112.461 139.084 112.259C138.952 112.057 138.886 111.805 138.888 111.502V106.766ZM141.62 112.77V107.926H142.762V112.77H141.62ZM142.194 107.239C142.013 107.239 141.858 107.179 141.727 107.059C141.597 106.937 141.532 106.791 141.532 106.621C141.532 106.448 141.597 106.302 141.727 106.183C141.858 106.061 142.013 106 142.194 106C142.377 106 142.533 106.061 142.661 106.183C142.791 106.302 142.856 106.448 142.856 106.621C142.856 106.791 142.791 106.937 142.661 107.059C142.533 107.179 142.377 107.239 142.194 107.239ZM146.034 107.926V108.809H143.25V107.926H146.034ZM143.937 106.766H145.079V111.313C145.079 111.467 145.102 111.584 145.148 111.666C145.197 111.746 145.26 111.801 145.337 111.83C145.415 111.86 145.501 111.874 145.596 111.874C145.667 111.874 145.733 111.869 145.791 111.859C145.852 111.848 145.899 111.839 145.93 111.83L146.123 112.723C146.062 112.744 145.974 112.767 145.861 112.792C145.749 112.817 145.613 112.832 145.451 112.836C145.165 112.845 144.907 112.802 144.678 112.707C144.449 112.61 144.267 112.461 144.133 112.259C144 112.057 143.935 111.805 143.937 111.502V106.766ZM147.915 106.312V112.77H146.773V106.312H147.915ZM150.913 112.865C150.427 112.865 150.008 112.764 149.655 112.562C149.303 112.358 149.033 112.07 148.844 111.698C148.655 111.324 148.56 110.883 148.56 110.377C148.56 109.878 148.655 109.441 148.844 109.065C149.035 108.686 149.302 108.392 149.645 108.182C149.988 107.969 150.39 107.863 150.853 107.863C151.151 107.863 151.433 107.912 151.698 108.008C151.965 108.103 152.2 108.25 152.404 108.45C152.61 108.65 152.772 108.904 152.89 109.213C153.008 109.52 153.067 109.886 153.067 110.31V110.66H149.096V109.891H151.972C151.97 109.672 151.923 109.478 151.83 109.308C151.738 109.135 151.609 109 151.443 108.901C151.279 108.802 151.087 108.753 150.869 108.753C150.635 108.753 150.43 108.809 150.254 108.923C150.077 109.034 149.939 109.181 149.841 109.364C149.744 109.545 149.694 109.744 149.692 109.96V110.632C149.692 110.914 149.744 111.155 149.847 111.357C149.95 111.557 150.094 111.71 150.279 111.818C150.464 111.923 150.68 111.975 150.928 111.975C151.095 111.975 151.245 111.952 151.379 111.906C151.514 111.858 151.631 111.787 151.729 111.695C151.828 111.602 151.903 111.488 151.953 111.351L153.019 111.471C152.952 111.753 152.824 111.998 152.634 112.209C152.447 112.417 152.208 112.579 151.916 112.694C151.623 112.808 151.289 112.865 150.913 112.865Z" fill="#232529"/>
</g>
<g clip-path="url(#clip6_654_3821)">
<path fill-rule="evenodd" clip-rule="evenodd" d="M159.472 108.267C159.591 108.147 159.785 108.147 159.904 108.267L161.353 109.716L162.802 108.267C162.921 108.147 163.115 108.147 163.234 108.267C163.353 108.386 163.353 108.579 163.234 108.698L161.569 110.363C161.45 110.483 161.256 110.483 161.137 110.363L159.472 108.698C159.353 108.579 159.353 108.386 159.472 108.267Z" fill="#232529"/>
</g>
</g>
<g clip-path="url(#clip7_654_3821)">
<path fill-rule="evenodd" clip-rule="evenodd" d="M200.316 108.272C200.435 108.153 200.628 108.153 200.748 108.272L202.197 109.721L203.646 108.272C203.765 108.153 203.958 108.153 204.078 108.272C204.197 108.391 204.197 108.584 204.078 108.703L202.413 110.368C202.293 110.488 202.1 110.488 201.981 110.368L200.316 108.703C200.197 108.584 200.197 108.391 200.316 108.272Z" fill="#75777C"/>
</g>
</g>
<rect x="64" y="124.86" width="150.96" height="1" fill="#EEEFF1"/>
<g filter="url(#filter2_di_654_3821)">
<rect x="68.4414" y="134.3" width="142.08" height="17.75" rx="6" fill="white"/>
<rect x="68.9414" y="134.8" width="141.08" height="16.75" rx="5.5" stroke="#E6E7EA"/>
<g clip-path="url(#clip8_654_3821)">
<g clip-path="url(#clip9_654_3821)">
<path fill-rule="evenodd" clip-rule="evenodd" d="M75.6868 140.329C74.4038 140.329 73.3636 141.37 73.3636 142.655C73.3636 143.939 74.4038 144.981 75.6868 144.981C76.9699 144.981 78.0101 143.939 78.0101 142.655C78.0101 141.37 76.9699 140.329 75.6868 140.329ZM72.7539 142.655C72.7539 141.033 74.067 139.718 75.6868 139.718C77.3067 139.718 78.6198 141.033 78.6198 142.655C78.6198 143.356 78.3745 143.999 77.9651 144.504L79.3715 145.912C79.4905 146.032 79.4905 146.225 79.3715 146.344C79.2524 146.463 79.0594 146.463 78.9403 146.344L77.534 144.936C77.0298 145.346 76.3869 145.591 75.6868 145.591C74.067 145.591 72.7539 144.277 72.7539 142.655Z" fill="#5C5E63"/>
</g>
</g>
<rect x="85.6914" y="140.965" width="23.86" height="4.43" rx="2.215" fill="#EEEFF1"/>
<rect x="181.102" y="137.63" width="11.1" height="11.1" rx="4" fill="#FBFBFB"/>
<rect x="195.543" y="137.63" width="11.1" height="11.1" rx="4" fill="#FBFBFB"/>
</g>
<g clip-path="url(#clip10_654_3821)">
<g clip-path="url(#clip11_654_3821)">
<path fill-rule="evenodd" clip-rule="evenodd" d="M74.8429 165.601L72.4743 168.206H73.5082C73.7994 168.206 74.0354 168.442 74.0354 168.733V170.72L76.6108 168.076H75.3702C75.079 168.076 74.8429 167.84 74.8429 167.549V165.601ZM74.536 165.031C74.8602 164.674 75.4534 164.903 75.4534 165.385V167.466H76.8081C77.2745 167.466 77.5112 168.027 77.1857 168.361L74.3299 171.293C73.9998 171.632 73.4249 171.398 73.4249 170.925V168.816H72.2861C71.8284 168.816 71.5881 168.273 71.896 167.934L74.536 165.031Z" fill="#5C5E63"/>
</g>
</g>
<rect x="81.7617" y="165.935" width="24.42" height="4.44" rx="2.22" fill="#EEEFF1"/>
<g clip-path="url(#clip12_654_3821)">
<g clip-path="url(#clip13_654_3821)">
<path fill-rule="evenodd" clip-rule="evenodd" d="M73.6995 181.427H75.391C75.7683 181.427 76.0701 181.427 76.3139 181.446C76.5642 181.467 76.7801 181.51 76.9788 181.611C77.2973 181.773 77.5562 182.031 77.7185 182.35C77.8197 182.548 77.8626 182.764 77.8831 183.014C77.903 183.257 77.903 183.558 77.903 183.935V185.625C77.903 186.001 77.903 186.303 77.8831 186.546C77.8626 186.796 77.8197 187.012 77.7185 187.21C77.5562 187.528 77.2973 187.787 76.9788 187.949C76.7801 188.05 76.5642 188.093 76.3139 188.113C76.0701 188.133 75.7683 188.133 75.391 188.133H73.6995C73.3222 188.133 73.0204 188.133 72.7766 188.113C72.5263 188.093 72.3104 188.05 72.1118 187.949C71.7932 187.787 71.5343 187.528 71.372 187.21C71.2708 187.012 71.2279 186.796 71.2074 186.546C71.1875 186.303 71.1875 186.001 71.1875 185.625V183.935C71.1875 183.558 71.1875 183.257 71.2074 183.014C71.2279 182.764 71.2708 182.548 71.372 182.35C71.5343 182.031 71.7932 181.773 72.1118 181.611C72.3104 181.51 72.5263 181.467 72.7766 181.446C73.0204 181.427 73.3222 181.427 73.6995 181.427ZM72.8263 182.054C72.6138 182.071 72.4871 182.104 72.3889 182.154C72.1853 182.258 72.0197 182.423 71.916 182.626C71.8659 182.724 71.8333 182.851 71.8159 183.063C71.7982 183.279 71.798 183.555 71.798 183.949V185.611C71.798 186.004 71.7982 186.281 71.8159 186.497C71.8333 186.709 71.8659 186.835 71.916 186.933C72.0197 187.137 72.1853 187.302 72.3889 187.406C72.4871 187.456 72.6138 187.488 72.8263 187.506C73.0424 187.523 73.3192 187.524 73.7127 187.524H75.3777C75.7713 187.524 76.0481 187.523 76.2642 187.506C76.4767 187.488 76.6034 187.456 76.7016 187.406C76.9052 187.302 77.0708 187.137 77.1746 186.933C77.2246 186.835 77.2573 186.709 77.2746 186.497C77.2923 186.281 77.2925 186.004 77.2925 185.611V183.949C77.2925 183.555 77.2923 183.279 77.2746 183.063C77.2573 182.851 77.2246 182.724 77.1746 182.626C77.0708 182.423 76.9052 182.258 76.7016 182.154C76.6034 182.104 76.4767 182.071 76.2642 182.054C76.0481 182.036 75.7713 182.036 75.3777 182.036H73.7127C73.3192 182.036 73.0424 182.036 72.8263 182.054Z" fill="#5C5E63"/>
<path fill-rule="evenodd" clip-rule="evenodd" d="M75.9622 183.416C76.1032 183.509 76.1427 183.698 76.0503 183.838L75.1326 185.238C75.0184 185.412 74.9214 185.56 74.8333 185.671C74.7431 185.784 74.6354 185.895 74.4871 185.956C74.278 186.042 74.0428 186.041 73.8351 185.951C73.6878 185.888 73.5818 185.775 73.4934 185.66C73.407 185.548 73.3124 185.399 73.201 185.223L73.0395 184.968C72.9494 184.826 72.9918 184.638 73.1343 184.547C73.2767 184.457 73.4653 184.5 73.5554 184.642L73.7093 184.885C73.8303 185.076 73.9101 185.201 73.9775 185.289C74.0447 185.376 74.0732 185.39 74.077 185.391C74.1334 185.416 74.1972 185.416 74.254 185.393C74.2578 185.391 74.2865 185.378 74.3551 185.292C74.4238 185.205 74.5056 185.081 74.6296 184.892L75.5396 183.504C75.632 183.363 75.8212 183.324 75.9622 183.416Z" fill="#5C5E63"/>
</g>
</g>
<rect x="81.7617" y="182.56" width="19.42" height="4.44" rx="2.22" fill="#EEEFF1"/>
<g clip-path="url(#clip14_654_3821)">
<g clip-path="url(#clip15_654_3821)">
<path fill-rule="evenodd" clip-rule="evenodd" d="M73.9769 197.79H75.4701C75.5525 197.79 75.6315 197.823 75.689 197.882L77.5389 199.782C77.5944 199.839 77.6253 199.915 77.6253 199.995V202.542C77.6253 202.919 77.6253 203.22 77.6054 203.464C77.585 203.714 77.542 203.929 77.4409 204.128C77.2786 204.446 77.0196 204.704 76.7011 204.866C76.5025 204.968 76.2865 205.01 76.0363 205.031C75.7924 205.051 75.4906 205.051 75.1133 205.051H73.9769C73.5996 205.051 73.2978 205.051 73.054 205.031C72.8037 205.01 72.5877 204.968 72.3891 204.866C72.0706 204.704 71.8117 204.446 71.6494 204.128C71.5482 203.929 71.5052 203.713 71.4848 203.463C71.4649 203.22 71.4649 202.918 71.4649 202.541L71.4648 200.299C71.4648 199.922 71.4648 199.62 71.4848 199.377C71.5052 199.127 71.5481 198.911 71.6493 198.713C71.8116 198.395 72.0706 198.136 72.3891 197.974C72.5877 197.873 72.8037 197.83 73.0539 197.809C73.2978 197.79 73.5995 197.79 73.9769 197.79ZM73.1036 198.417C72.8911 198.434 72.7645 198.467 72.6663 198.517C72.4626 198.621 72.2971 198.786 72.1933 198.989C72.1433 199.087 72.1106 199.214 72.0932 199.426C72.0756 199.642 72.0753 199.919 72.0753 200.312L72.0754 202.528C72.0754 202.921 72.0756 203.198 72.0933 203.414C72.1106 203.626 72.1433 203.753 72.1933 203.851C72.2971 204.054 72.4626 204.22 72.6663 204.323C72.7645 204.373 72.8912 204.406 73.1037 204.423C73.3197 204.441 73.5965 204.441 73.9901 204.441H75.1001C75.4937 204.441 75.7705 204.441 75.9865 204.423C76.199 204.406 76.3257 204.373 76.4239 204.323C76.6276 204.22 76.7931 204.054 76.8969 203.851C76.9469 203.753 76.9796 203.626 76.997 203.414C77.0146 203.198 77.0148 202.922 77.0148 202.529V200.3H76.1991C76.079 200.3 75.9712 200.3 75.8815 200.292C75.7855 200.285 75.6837 200.267 75.584 200.216C75.4396 200.143 75.3221 200.025 75.2485 199.881C75.1977 199.781 75.18 199.68 75.1722 199.584C75.1648 199.494 75.1648 199.387 75.1649 199.267V198.399H73.9901C73.5965 198.399 73.3197 198.4 73.1036 198.417ZM75.7754 198.845L76.5976 199.69H76.2101C76.0756 199.69 75.993 199.69 75.9312 199.685C75.9024 199.682 75.8848 199.679 75.8741 199.677C75.869 199.676 75.8658 199.675 75.864 199.674C75.8623 199.673 75.8612 199.673 75.8612 199.673C75.8316 199.658 75.8076 199.634 75.7925 199.604C75.7925 199.604 75.792 199.603 75.7914 199.601C75.7907 199.6 75.7897 199.596 75.7885 199.591C75.786 199.581 75.783 199.563 75.7806 199.534C75.7756 199.473 75.7754 199.39 75.7754 199.256V198.845Z" fill="#5C5E63"/>
</g>
</g>
<rect x="81.7617" y="199.2" width="19.42" height="4.44" rx="2.22" fill="#EEEFF1"/>
<g clip-path="url(#clip16_654_3821)">
<path d="M74.7864 216.102C74.7864 216.237 74.6777 216.345 74.5436 216.345C74.4095 216.345 74.3008 216.237 74.3008 216.102C74.3008 215.968 74.4095 215.86 74.5436 215.86C74.6777 215.86 74.7864 215.968 74.7864 216.102Z" fill="#5C5E63"/>
<path fill-rule="evenodd" clip-rule="evenodd" d="M74.5464 216.054C74.5196 216.054 74.4979 216.076 74.4979 216.102C74.4979 216.129 74.5196 216.151 74.5464 216.151C74.5733 216.151 74.595 216.129 74.595 216.102C74.595 216.076 74.5733 216.054 74.5464 216.054ZM74.1094 216.102C74.1094 215.861 74.3051 215.665 74.5464 215.665C74.7878 215.665 74.9835 215.861 74.9835 216.102C74.9835 216.344 74.7878 216.539 74.5464 216.539C74.3051 216.539 74.1094 216.344 74.1094 216.102Z" fill="#5C5E63"/>
<path d="M74.7864 218.045C74.7864 218.179 74.6777 218.288 74.5436 218.288C74.4095 218.288 74.3008 218.179 74.3008 218.045C74.3008 217.911 74.4095 217.802 74.5436 217.802C74.6777 217.802 74.7864 217.911 74.7864 218.045Z" fill="#5C5E63"/>
<path fill-rule="evenodd" clip-rule="evenodd" d="M74.5464 217.996C74.5196 217.996 74.4979 218.018 74.4979 218.045C74.4979 218.072 74.5196 218.094 74.5464 218.094C74.5733 218.094 74.595 218.072 74.595 218.045C74.595 218.018 74.5733 217.996 74.5464 217.996ZM74.1094 218.045C74.1094 217.804 74.3051 217.608 74.5464 217.608C74.7878 217.608 74.9835 217.804 74.9835 218.045C74.9835 218.286 74.7878 218.482 74.5464 218.482C74.3051 218.482 74.1094 218.286 74.1094 218.045Z" fill="#5C5E63"/>
<path d="M74.7864 219.987C74.7864 220.122 74.6777 220.23 74.5436 220.23C74.4095 220.23 74.3008 220.122 74.3008 219.987C74.3008 219.853 74.4095 219.745 74.5436 219.745C74.6777 219.745 74.7864 219.853 74.7864 219.987Z" fill="#5C5E63"/>
<path fill-rule="evenodd" clip-rule="evenodd" d="M74.5464 219.939C74.5196 219.939 74.4979 219.961 74.4979 219.987C74.4979 220.014 74.5196 220.036 74.5464 220.036C74.5733 220.036 74.595 220.014 74.595 219.987C74.595 219.961 74.5733 219.939 74.5464 219.939ZM74.1094 219.987C74.1094 219.746 74.3051 219.55 74.5464 219.55C74.7878 219.55 74.9835 219.746 74.9835 219.987C74.9835 220.229 74.7878 220.424 74.5464 220.424C74.3051 220.424 74.1094 220.229 74.1094 219.987Z" fill="#5C5E63"/>
</g>
<rect x="81.7617" y="215.825" width="17.21" height="4.44" rx="2.22" fill="#EEEFF1"/>
<g clip-path="url(#clip17_654_3821)">
<path fill-rule="evenodd" clip-rule="evenodd" d="M72.6636 233.63C72.7828 233.511 72.9761 233.511 73.0953 233.63L74.5445 235.081L75.9936 233.63C76.1128 233.511 76.3061 233.511 76.4253 233.63C76.5445 233.75 76.5445 233.943 76.4253 234.063L74.7603 235.73C74.6411 235.849 74.4478 235.849 74.3286 235.73L72.6636 234.063C72.5444 233.943 72.5444 233.75 72.6636 233.63Z" fill="#5C5E63"/>
</g>
<rect x="81.7617" y="232.46" width="24.42" height="4.44" rx="2.22" fill="#E6E7EA"/>
<g clip-path="url(#clip18_654_3821)">
<g clip-path="url(#clip19_654_3821)">
<path fill-rule="evenodd" clip-rule="evenodd" d="M72.5862 252.423C71.8597 252.423 71.2707 253.012 71.2707 253.739C71.2707 253.918 71.4153 254.062 71.5938 254.062H75.4678C75.6463 254.062 75.7909 253.918 75.7909 253.739C75.7909 253.012 75.2019 252.423 74.4753 252.423H72.5862ZM70.6602 253.739C70.6602 252.675 71.5225 251.813 72.5862 251.813H74.4753C75.5391 251.813 76.4014 252.675 76.4014 253.739C76.4014 254.255 75.9834 254.673 75.4678 254.673H71.5938C71.0782 254.673 70.6602 254.255 70.6602 253.739Z" fill="#5C5E63"/>
<path fill-rule="evenodd" clip-rule="evenodd" d="M73.5879 248.568C73.048 248.568 72.6105 249.005 72.6105 249.545C72.6105 250.084 73.048 250.521 73.5879 250.521C74.1279 250.521 74.5654 250.084 74.5654 249.545C74.5654 249.005 74.1279 248.568 73.5879 248.568ZM72 249.545C72 248.668 72.7111 247.957 73.5879 247.957C74.4648 247.957 75.1759 248.668 75.1759 249.545C75.1759 250.421 74.4648 251.132 73.5879 251.132C72.7111 251.132 72 250.421 72 249.545Z" fill="#5C5E63"/>
<path fill-rule="evenodd" clip-rule="evenodd" d="M76.2842 252.093C76.3074 251.926 76.4616 251.81 76.6286 251.833C77.641 251.974 78.4309 252.84 78.4309 253.896C78.4309 254.048 78.3908 254.192 78.2958 254.309C78.2033 254.424 78.0828 254.483 77.9772 254.515C77.8109 254.564 77.6121 254.562 77.4881 254.561C77.4696 254.56 77.4527 254.56 77.4378 254.56H77.0841C76.9155 254.56 76.7789 254.424 76.7789 254.255C76.7789 254.086 76.9155 253.95 77.0841 253.95H77.4378C77.4628 253.95 77.4861 253.95 77.5084 253.95C77.5596 253.951 77.6055 253.951 77.6543 253.949C77.722 253.946 77.7695 253.939 77.8016 253.93C77.8091 253.928 77.8146 253.925 77.8185 253.924C77.8195 253.918 77.8204 253.909 77.8204 253.896C77.8204 253.153 77.2634 252.538 76.5445 252.438C76.3776 252.415 76.261 252.26 76.2842 252.093Z" fill="#5C5E63"/>
<path fill-rule="evenodd" clip-rule="evenodd" d="M75.125 248.263C75.125 248.094 75.2617 247.957 75.4303 247.957C76.3078 247.957 77.0182 248.67 77.0182 249.548C77.0182 250.426 76.3078 251.138 75.4303 251.138C75.2617 251.138 75.125 251.002 75.125 250.833C75.125 250.664 75.2617 250.528 75.4303 250.528C75.9695 250.528 76.4077 250.09 76.4077 249.548C76.4077 249.006 75.9695 248.568 75.4303 248.568C75.2617 248.568 75.125 248.431 75.125 248.263Z" fill="#5C5E63"/>
</g>
</g>
<rect x="81.7617" y="249.095" width="37.19" height="4.44" rx="2.22" fill="#EEEFF1"/>
<g clip-path="url(#clip20_654_3821)">
<g clip-path="url(#clip21_654_3821)">
<path fill-rule="evenodd" clip-rule="evenodd" d="M72.9929 264.577L74.034 264.577C74.3801 264.577 74.6584 264.577 74.8835 264.595C75.1151 264.614 75.3172 264.654 75.5038 264.749C75.8012 264.9 76.043 265.142 76.1945 265.439C76.2896 265.626 76.3295 265.828 76.3484 266.059C76.3668 266.284 76.3668 266.562 76.3668 266.908V268.952C76.3668 269.298 76.3668 269.576 76.3484 269.801C76.3295 270.032 76.2896 270.234 76.1945 270.421C76.043 270.718 75.8012 270.96 75.5038 271.111C75.3172 271.206 75.1151 271.246 74.8835 271.265C74.6583 271.284 74.3801 271.284 74.034 271.284H72.9929C72.6469 271.284 72.3686 271.284 72.1434 271.265C71.9119 271.246 71.7098 271.206 71.5232 271.111C71.2258 270.96 70.984 270.718 70.8324 270.421C70.7374 270.234 70.6975 270.032 70.6786 269.801C70.6602 269.576 70.6602 269.297 70.6602 268.951L70.6602 266.909C70.6602 266.563 70.6601 266.285 70.6785 266.059C70.6975 265.828 70.7373 265.626 70.8324 265.439C70.984 265.142 71.2257 264.9 71.5231 264.749C71.7097 264.654 71.9119 264.614 72.1434 264.595C72.3686 264.577 72.6469 264.577 72.9929 264.577ZM72.1931 265.203C71.9993 265.219 71.8864 265.248 71.8001 265.292C71.6175 265.385 71.469 265.533 71.376 265.716C71.332 265.802 71.3024 265.915 71.2866 266.109C71.2704 266.306 71.2702 266.56 71.2702 266.922L71.2702 268.938C71.2702 269.3 71.2704 269.554 71.2866 269.751C71.3024 269.945 71.3321 270.058 71.376 270.144C71.469 270.327 71.6175 270.475 71.8001 270.568C71.8864 270.612 71.9993 270.642 72.1931 270.657C72.3905 270.674 72.6438 270.674 73.006 270.674H74.0209C74.3831 270.674 74.6364 270.674 74.8338 270.657C75.0277 270.642 75.1406 270.612 75.2268 270.568C75.4094 270.475 75.5579 270.327 75.6509 270.144C75.6949 270.058 75.7245 269.945 75.7404 269.751C75.7565 269.554 75.7567 269.301 75.7567 268.939L75.7567 266.921C75.7567 266.559 75.7565 266.306 75.7404 266.109C75.7245 265.915 75.6949 265.802 75.651 265.716C75.5579 265.533 75.4094 265.385 75.2268 265.292C75.1406 265.248 75.0277 265.219 74.8338 265.203C74.6364 265.187 74.3831 265.186 74.0209 265.186L73.006 265.186C72.6438 265.186 72.3905 265.187 72.1931 265.203Z" fill="#5C5E63"/>
<path fill-rule="evenodd" clip-rule="evenodd" d="M76.6051 265.941C76.6321 265.775 76.7888 265.662 76.955 265.689C77.7817 265.823 78.4246 266.522 78.4246 267.379V268.548C78.4246 268.867 78.4246 269.122 78.41 269.329C78.395 269.541 78.3636 269.726 78.2892 269.9C78.1087 270.321 77.7641 270.653 77.3342 270.825C77.1488 270.899 76.9504 270.929 76.7171 270.942C76.5489 270.952 76.4048 270.824 76.395 270.656C76.3853 270.488 76.5138 270.343 76.682 270.334C76.8879 270.322 77.0108 270.298 77.1072 270.259C77.3909 270.146 77.6132 269.929 77.7283 269.66C77.7648 269.575 77.7888 269.466 77.8015 269.286C77.8144 269.103 77.8146 268.869 77.8146 268.537V267.379C77.8146 266.84 77.408 266.38 76.8573 266.291C76.691 266.264 76.5781 266.107 76.6051 265.941Z" fill="#5C5E63"/>
<path fill-rule="evenodd" clip-rule="evenodd" d="M71.7695 266.267C71.7695 266.099 71.9061 265.962 72.0746 265.962H74.0161C74.1846 265.962 74.3211 266.099 74.3211 266.267C74.3211 266.436 74.1846 266.572 74.0161 266.572H72.0746C71.9061 266.572 71.7695 266.436 71.7695 266.267Z" fill="#5C5E63"/>
<path fill-rule="evenodd" clip-rule="evenodd" d="M72.7109 267.653C72.7109 267.485 72.8475 267.348 73.016 267.348H74.9575C75.126 267.348 75.2625 267.485 75.2625 267.653C75.2625 267.821 75.126 267.958 74.9575 267.958H73.016C72.8475 267.958 72.7109 267.821 72.7109 267.653Z" fill="#5C5E63"/>
<path fill-rule="evenodd" clip-rule="evenodd" d="M73.5043 268.839C73.5074 268.839 73.5105 268.839 73.5136 268.839C73.5167 268.839 73.5198 268.839 73.5228 268.839C73.628 268.839 73.7217 268.839 73.7999 268.844C73.8831 268.85 73.9708 268.863 74.0587 268.899C74.2524 268.979 74.4063 269.133 74.4865 269.327C74.5229 269.415 74.5357 269.502 74.5414 269.585C74.5467 269.664 74.5467 269.757 74.5467 269.862V270.842H73.9366V269.872C73.9366 269.754 73.9365 269.682 73.9327 269.627C73.9292 269.575 73.9235 269.562 73.9229 269.56C73.9046 269.516 73.8695 269.481 73.8253 269.463C73.8239 269.462 73.8101 269.456 73.7584 269.453C73.7035 269.449 73.6308 269.449 73.5136 269.449C73.3963 269.449 73.3237 269.449 73.2688 269.453C73.217 269.456 73.2033 269.462 73.2019 269.463C73.1577 269.481 73.1225 269.516 73.1042 269.56C73.1036 269.562 73.098 269.575 73.0944 269.627C73.0907 269.682 73.0905 269.754 73.0905 269.872V270.842H72.4805V269.872C72.4805 269.869 72.4805 269.865 72.4805 269.862C72.4805 269.757 72.4805 269.664 72.4858 269.585C72.4915 269.502 72.5042 269.415 72.5406 269.327C72.6209 269.133 72.7747 268.979 72.9684 268.899C73.0564 268.863 73.144 268.85 73.2272 268.844C73.3054 268.839 73.3992 268.839 73.5043 268.839Z" fill="#5C5E63"/>
</g>
</g>
<rect x="81.7617" y="265.71" width="37.19" height="4.44" rx="2.22" fill="#EEEFF1"/>
<g clip-path="url(#clip22_654_3821)">
<rect x="64" y="277.35" width="150.96" height="94.28" rx="12" fill="#FBFBFB"/>
<g clip-path="url(#clip23_654_3821)">
<path fill-rule="evenodd" clip-rule="evenodd" d="M72.6636 283.527C72.7828 283.407 72.9761 283.407 73.0953 283.527L74.5445 284.976L75.9936 283.527C76.1128 283.407 76.3061 283.407 76.4253 283.527C76.5445 283.646 76.5445 283.839 76.4253 283.958L74.7603 285.623C74.6411 285.743 74.4478 285.743 74.3286 285.623L72.6636 283.958C72.5444 283.839 72.5444 283.646 72.6636 283.527Z" fill="#5C5E63"/>
</g>
<rect x="81.7617" y="282.35" width="24.42" height="4.44" rx="2.22" fill="#E6E7EA"/>
<g clip-path="url(#clip24_654_3821)">
<path fill-rule="evenodd" clip-rule="evenodd" d="M204.415 282.3C204.599 282.3 204.748 282.449 204.748 282.633V286.518C204.748 286.701 204.599 286.851 204.415 286.851C204.231 286.851 204.082 286.701 204.082 286.518V282.633C204.082 282.449 204.231 282.3 204.415 282.3Z" fill="#5C5E63"/>
<path fill-rule="evenodd" clip-rule="evenodd" d="M202.141 284.575C202.141 284.391 202.29 284.242 202.474 284.242H206.359C206.543 284.242 206.692 284.391 206.692 284.575C206.692 284.759 206.543 284.908 206.359 284.908H202.474C202.29 284.908 202.141 284.759 202.141 284.575Z" fill="#5C5E63"/>
</g>
<rect x="70.6602" y="297.31" width="11.1" height="11.11" rx="4" fill="#FBFBFB"/>
<rect x="85.0586" y="300.645" width="33.86" height="4.44" rx="2.22" fill="#EEEFF1"/>
<g clip-path="url(#clip25_654_3821)">
<path fill-rule="evenodd" clip-rule="evenodd" d="M124.222 301.816C124.341 301.697 124.534 301.697 124.653 301.816L126.101 303.266L127.548 301.816C127.667 301.697 127.86 301.697 127.979 301.816C128.098 301.936 128.098 302.129 127.979 302.248L126.316 303.913C126.197 304.032 126.004 304.032 125.885 303.913L124.222 302.248C124.103 302.129 124.103 301.936 124.222 301.816Z" fill="#75777C"/>
</g>
<rect x="70.6602" y="317.29" width="11.1" height="11.09" rx="4" fill="#FBFBFB"/>
<rect x="85.0586" y="320.62" width="33.86" height="4.43" rx="2.215" fill="#EEEFF1"/>
<g clip-path="url(#clip26_654_3821)">
<path fill-rule="evenodd" clip-rule="evenodd" d="M124.222 321.787C124.341 321.667 124.534 321.667 124.653 321.787L126.101 323.236L127.548 321.787C127.667 321.667 127.86 321.667 127.979 321.787C128.098 321.906 128.098 322.099 127.979 322.218L126.316 323.883C126.197 324.003 126.004 324.003 125.885 323.883L124.222 322.218C124.103 322.099 124.103 321.906 124.222 321.787Z" fill="#75777C"/>
</g>
<rect x="70.6602" y="337.25" width="11.1" height="11.11" rx="4" fill="#FBFBFB"/>
<rect x="85.0586" y="340.585" width="17.76" height="4.44" rx="2.22" fill="#EEEFF1"/>
<g clip-path="url(#clip27_654_3821)">
<path fill-rule="evenodd" clip-rule="evenodd" d="M108.125 341.757C108.244 341.637 108.437 341.637 108.556 341.757L110.005 343.206L111.455 341.757C111.574 341.637 111.767 341.637 111.886 341.757C112.005 341.876 112.005 342.069 111.886 342.188L110.221 343.853C110.102 343.973 109.909 343.973 109.79 343.853L108.125 342.188C108.005 342.069 108.005 341.876 108.125 341.757Z" fill="#75777C"/>
</g>
<rect x="70.6602" y="357.21" width="11.1" height="11.1" rx="4" fill="#FBFBFB"/>
<rect x="85.0586" y="360.535" width="33.86" height="4.45" rx="2.225" fill="#EEEFF1"/>
<g clip-path="url(#clip28_654_3821)">
<path fill-rule="evenodd" clip-rule="evenodd" d="M124.222 361.712C124.341 361.593 124.534 361.593 124.653 361.712L126.101 363.161L127.548 361.712C127.667 361.593 127.86 361.593 127.979 361.712C128.098 361.831 128.098 362.024 127.979 362.143L126.316 363.808C126.197 363.928 126.004 363.928 125.885 363.808L124.222 362.143C124.103 362.024 124.103 361.831 124.222 361.712Z" fill="#75777C"/>
</g>
</g>
<g clip-path="url(#clip29_654_3821)">
<path fill-rule="evenodd" clip-rule="evenodd" d="M73.2079 570.442C72.4594 570.442 71.8527 571.049 71.8527 571.797C71.8527 571.999 72.0162 572.162 72.218 572.162H75.0217C75.1903 572.162 75.327 572.299 75.327 572.468C75.327 572.636 75.1903 572.773 75.0217 572.773H72.218C71.6791 572.773 71.2422 572.336 71.2422 571.797C71.2422 570.711 72.1223 569.831 73.2079 569.831H74.4667C74.6353 569.831 74.772 569.968 74.772 570.137C74.772 570.305 74.6353 570.442 74.4667 570.442H73.2079Z" fill="#5C5E63"/>
<path fill-rule="evenodd" clip-rule="evenodd" d="M74.1009 566.668C73.5798 566.668 73.1574 567.09 73.1574 567.611C73.1574 568.132 73.5798 568.555 74.1009 568.555C74.622 568.555 75.0444 568.132 75.0444 567.611C75.0444 567.09 74.622 566.668 74.1009 566.668ZM72.5469 567.611C72.5469 566.753 73.2426 566.057 74.1009 566.057C74.9591 566.057 75.6549 566.753 75.6549 567.611C75.6549 568.47 74.9591 569.165 74.1009 569.165C73.2426 569.165 72.5469 568.47 72.5469 567.611Z" fill="#5C5E63"/>
<path fill-rule="evenodd" clip-rule="evenodd" d="M75.1055 571.163C75.1055 570.995 75.2421 570.858 75.4107 570.858H77.3532C77.5218 570.858 77.6585 570.995 77.6585 571.163C77.6585 571.332 77.5218 571.469 77.3532 571.469H75.4107C75.2421 571.469 75.1055 571.332 75.1055 571.163Z" fill="#5C5E63"/>
<path fill-rule="evenodd" clip-rule="evenodd" d="M76.3834 572.44C76.2148 572.44 76.0781 572.303 76.0781 572.135V570.192C76.0781 570.024 76.2148 569.887 76.3834 569.887C76.552 569.887 76.6886 570.024 76.6886 570.192V572.135C76.6886 572.303 76.552 572.44 76.3834 572.44Z" fill="#5C5E63"/>
</g>
<rect x="81.7617" y="567.195" width="61.6" height="4.44" rx="2.22" fill="#E6E7EA"/>
<g clip-path="url(#clip30_654_3821)">
<g clip-path="url(#clip31_654_3821)">
<path fill-rule="evenodd" clip-rule="evenodd" d="M74.5434 580.959C72.9495 580.959 71.6574 582.251 71.6574 583.845C71.6574 585.439 72.9495 586.731 74.5434 586.731C76.1373 586.731 77.4294 585.439 77.4294 583.845C77.4294 582.251 76.1373 580.959 74.5434 580.959ZM71.0469 583.845C71.0469 581.914 72.6123 580.348 74.5434 580.348C76.4744 580.348 78.0399 581.914 78.0399 583.845C78.0399 585.776 76.4744 587.341 74.5434 587.341C72.6123 587.341 71.0469 585.776 71.0469 583.845Z" fill="#5C5E63"/>
<path d="M74.4524 584.521C74.605 584.521 74.6813 584.429 74.7037 584.281C74.7217 584.077 74.7935 583.969 75.0874 583.799C75.3926 583.617 75.5631 583.382 75.5631 583.038C75.5631 582.531 75.1457 582.186 74.5377 582.186C74.0754 582.186 73.7254 582.374 73.5863 582.679C73.5436 582.764 73.5234 582.847 73.5234 582.944C73.5234 583.094 73.6154 583.189 73.7703 583.189C73.8937 583.189 73.9767 583.132 74.0261 582.993C74.0979 582.767 74.2639 582.643 74.513 582.643C74.789 582.643 74.9797 582.814 74.9797 583.058C74.9797 583.274 74.8855 583.397 74.6072 583.566C74.3267 583.732 74.1876 583.916 74.1876 584.194V584.236C74.1876 584.4 74.2819 584.521 74.4524 584.521ZM74.4569 585.495C74.6386 585.495 74.7822 585.354 74.7822 585.177C74.7822 584.999 74.6386 584.86 74.4569 584.86C74.2751 584.86 74.1293 584.999 74.1293 585.177C74.1293 585.354 74.2751 585.495 74.4569 585.495Z" fill="#5C5E63"/>
</g>
</g>
<rect x="81.7617" y="581.625" width="35.52" height="4.44" rx="2.22" fill="#E6E7EA"/>
<rect x="120.613" y="581.625" width="22.75" height="4.44" rx="2.22" fill="#E6E7EA"/>
</g>
<g clip-path="url(#clip32_654_3821)">
<path d="M214.961 96H851.201C857.828 96 863.201 101.373 863.201 108V583.5C863.201 590.127 857.828 595.5 851.201 595.5H214.961V96Z" fill="white"/>
<rect x="226.062" y="101.55" width="15.54" height="15.54" rx="6" fill="white"/>
<rect x="250.484" y="107.1" width="25.53" height="4.44" rx="2.22" fill="#E6E7EA"/>
<rect x="214.961" y="124.86" width="648.24" height="1" fill="#EEEFF1"/>
<g filter="url(#filter3_ddd_654_3821)">
<g clip-path="url(#clip33_654_3821)">
<rect x="226.062" y="134.3" width="87.69" height="17.75" rx="6" fill="white"/>
<g clip-path="url(#clip34_654_3821)">
<g clip-path="url(#clip35_654_3821)">
<path d="M231.199 142.426C231.199 141.182 231.199 140.561 231.441 140.086C231.654 139.668 231.994 139.329 232.411 139.116C232.886 138.874 233.508 138.874 234.751 138.874H236.25C237.493 138.874 238.115 138.874 238.59 139.116C239.007 139.329 239.347 139.668 239.56 140.086C239.802 140.561 239.802 141.182 239.802 142.426V143.924C239.802 145.168 239.802 145.789 239.56 146.264C239.347 146.682 239.007 147.021 238.59 147.234C238.115 147.476 237.493 147.476 236.25 147.476H234.751C233.508 147.476 232.886 147.476 232.411 147.234C231.994 147.021 231.654 146.682 231.441 146.264C231.199 145.789 231.199 145.168 231.199 143.924V142.426Z" fill="#0FC27B"/>
<path d="M232.723 141.535C232.723 141.182 232.723 141.006 232.78 140.867C232.857 140.682 233.004 140.534 233.19 140.458C233.329 140.4 233.505 140.4 233.858 140.4C234.211 140.4 234.387 140.4 234.526 140.458C234.711 140.534 234.859 140.682 234.936 140.867C234.993 141.006 234.993 141.182 234.993 141.535C234.993 141.888 234.993 142.064 234.936 142.203C234.859 142.389 234.711 142.536 234.526 142.613C234.387 142.67 234.211 142.67 233.858 142.67C233.505 142.67 233.329 142.67 233.19 142.613C233.004 142.536 232.857 142.389 232.78 142.203C232.723 142.064 232.723 141.888 232.723 141.535Z" fill="white"/>
<path d="M232.723 144.815C232.723 144.462 232.723 144.286 232.78 144.147C232.857 143.961 233.004 143.814 233.19 143.737C233.329 143.679 233.505 143.679 233.858 143.679C234.211 143.679 234.387 143.679 234.526 143.737C234.711 143.814 234.859 143.961 234.936 144.147C234.993 144.286 234.993 144.462 234.993 144.815C234.993 145.167 234.993 145.344 234.936 145.483C234.859 145.668 234.711 145.815 234.526 145.892C234.387 145.95 234.211 145.95 233.858 145.95C233.505 145.95 233.329 145.95 233.19 145.892C233.004 145.815 232.857 145.668 232.78 145.483C232.723 145.344 232.723 145.167 232.723 144.815Z" fill="white"/>
<path d="M236.004 141.535C236.004 141.182 236.004 141.006 236.062 140.867C236.138 140.682 236.286 140.534 236.471 140.458C236.61 140.4 236.787 140.4 237.139 140.4C237.492 140.4 237.668 140.4 237.807 140.458C237.993 140.534 238.14 140.682 238.217 140.867C238.274 141.006 238.274 141.182 238.274 141.535C238.274 141.888 238.274 142.064 238.217 142.203C238.14 142.389 237.993 142.536 237.807 142.613C237.668 142.67 237.492 142.67 237.139 142.67C236.787 142.67 236.61 142.67 236.471 142.613C236.286 142.536 236.138 142.389 236.062 142.203C236.004 142.064 236.004 141.888 236.004 141.535Z" fill="white"/>
<path d="M236.004 144.815C236.004 144.462 236.004 144.286 236.062 144.147C236.138 143.961 236.286 143.814 236.471 143.737C236.61 143.679 236.787 143.679 237.139 143.679C237.492 143.679 237.668 143.679 237.807 143.737C237.993 143.814 238.14 143.961 238.217 144.147C238.274 144.286 238.274 144.462 238.274 144.815C238.274 145.167 238.274 145.344 238.217 145.483C238.14 145.668 237.993 145.815 237.807 145.892C237.668 145.95 237.492 145.95 237.139 145.95C236.787 145.95 236.61 145.95 236.471 145.892C236.286 145.815 236.138 145.668 236.062 145.483C236.004 145.344 236.004 145.167 236.004 144.815Z" fill="white"/>
</g>
</g>
<rect x="243.824" y="140.96" width="39.96" height="4.43" rx="2.215" fill="#E6E7EA"/>
<g clip-path="url(#clip36_654_3821)">
<path fill-rule="evenodd" clip-rule="evenodd" d="M302.004 141.899C302.134 141.769 302.345 141.769 302.475 141.899L304.32 143.745L306.166 141.899C306.296 141.769 306.507 141.769 306.637 141.899C306.767 142.029 306.767 142.24 306.637 142.37L304.556 144.451C304.426 144.581 304.215 144.581 304.085 144.451L302.004 142.37C301.874 142.24 301.874 142.029 302.004 141.899Z" fill="#75777C"/>
</g>
</g>
</g>
<g filter="url(#filter4_ddd_654_3821)">
<g clip-path="url(#clip37_654_3821)">
<rect x="320.453" y="134.3" width="61.94" height="17.75" rx="6" fill="white"/>
<g clip-path="url(#clip38_654_3821)">
<g clip-path="url(#clip39_654_3821)">
<path d="M325.59 142.431C325.59 141.187 325.59 140.566 325.832 140.091C326.045 139.673 326.384 139.333 326.802 139.121C327.277 138.879 327.899 138.879 329.142 138.879H330.64C331.884 138.879 332.505 138.879 332.98 139.121C333.398 139.333 333.738 139.673 333.95 140.091C334.192 140.566 334.192 141.187 334.192 142.431V143.929C334.192 145.172 334.192 145.794 333.95 146.269C333.738 146.687 333.398 147.026 332.98 147.239C332.505 147.481 331.884 147.481 330.64 147.481H329.142C327.899 147.481 327.277 147.481 326.802 147.239C326.384 147.026 326.045 146.687 325.832 146.269C325.59 145.794 325.59 145.172 325.59 143.929V142.431Z" fill="#0FC27B"/>
<path d="M327.113 141.54C327.113 141.187 327.113 141.011 327.171 140.872C327.248 140.687 327.395 140.539 327.58 140.462C327.72 140.405 327.896 140.405 328.249 140.405C328.601 140.405 328.777 140.405 328.917 140.462C329.102 140.539 329.249 140.687 329.326 140.872C329.384 141.011 329.384 141.187 329.384 141.54C329.384 141.893 329.384 142.069 329.326 142.208C329.249 142.393 329.102 142.541 328.917 142.618C328.777 142.675 328.601 142.675 328.249 142.675C327.896 142.675 327.72 142.675 327.58 142.618C327.395 142.541 327.248 142.393 327.171 142.208C327.113 142.069 327.113 141.893 327.113 141.54Z" fill="white"/>
<path d="M327.113 144.82C327.113 144.467 327.113 144.291 327.171 144.152C327.248 143.966 327.395 143.819 327.58 143.742C327.72 143.684 327.896 143.684 328.249 143.684C328.601 143.684 328.777 143.684 328.917 143.742C329.102 143.819 329.249 143.966 329.326 144.152C329.384 144.291 329.384 144.467 329.384 144.82C329.384 145.172 329.384 145.349 329.326 145.488C329.249 145.673 329.102 145.82 328.917 145.897C328.777 145.955 328.601 145.955 328.249 145.955C327.896 145.955 327.72 145.955 327.58 145.897C327.395 145.82 327.248 145.673 327.171 145.488C327.113 145.349 327.113 145.172 327.113 144.82Z" fill="white"/>
<path d="M330.395 141.54C330.395 141.187 330.395 141.011 330.452 140.872C330.529 140.687 330.676 140.539 330.862 140.462C331.001 140.405 331.177 140.405 331.53 140.405C331.882 140.405 332.059 140.405 332.198 140.462C332.383 140.539 332.531 140.687 332.607 140.872C332.665 141.011 332.665 141.187 332.665 141.54C332.665 141.893 332.665 142.069 332.607 142.208C332.531 142.393 332.383 142.541 332.198 142.618C332.059 142.675 331.882 142.675 331.53 142.675C331.177 142.675 331.001 142.675 330.862 142.618C330.676 142.541 330.529 142.393 330.452 142.208C330.395 142.069 330.395 141.893 330.395 141.54Z" fill="white"/>
<path d="M330.395 144.82C330.395 144.467 330.395 144.291 330.452 144.152C330.529 143.966 330.676 143.819 330.862 143.742C331.001 143.684 331.177 143.684 331.53 143.684C331.882 143.684 332.059 143.684 332.198 143.742C332.383 143.819 332.531 143.966 332.607 144.152C332.665 144.291 332.665 144.467 332.665 144.82C332.665 145.172 332.665 145.349 332.607 145.488C332.531 145.673 332.383 145.82 332.198 145.897C332.059 145.955 331.882 145.955 331.53 145.955C331.177 145.955 331.001 145.955 330.862 145.897C330.676 145.82 330.529 145.673 330.452 145.488C330.395 145.349 330.395 145.172 330.395 144.82Z" fill="white"/>
</g>
</g>
<rect x="338.184" y="140.965" width="18.31" height="4.43" rx="2.215" fill="#E6E7EA"/>
<g filter="url(#filter5_i_654_3821)">
<g clip-path="url(#clip40_654_3821)">
<rect x="359.793" y="137.63" width="18.16" height="11.1" rx="5.55" fill="#E5EEFF"/>
<g clip-path="url(#clip41_654_3821)">
<g clip-path="url(#clip42_654_3821)">
<path fill-rule="evenodd" clip-rule="evenodd" d="M365.353 141.067C364.301 141.067 363.489 141.734 362.971 142.338C362.898 142.423 362.861 142.467 362.831 142.517C362.803 142.563 362.775 142.624 362.742 142.738C362.731 142.776 362.719 142.879 362.719 143.01C362.719 143.141 362.731 143.244 362.742 143.282C362.775 143.396 362.803 143.457 362.831 143.503C362.861 143.553 362.898 143.597 362.971 143.682C363.489 144.286 364.301 144.952 365.353 144.952C366.405 144.952 367.218 144.286 367.735 143.682C367.808 143.597 367.845 143.553 367.875 143.503C367.904 143.457 367.931 143.396 367.965 143.282C367.976 143.244 367.987 143.141 367.987 143.01C367.987 142.879 367.976 142.776 367.965 142.738C367.931 142.624 367.904 142.563 367.875 142.517C367.845 142.467 367.808 142.423 367.735 142.338C367.218 141.734 366.405 141.067 365.353 141.067ZM362.55 141.977C363.105 141.329 364.058 140.512 365.353 140.512C366.648 140.512 367.601 141.329 368.157 141.977L368.163 141.984C368.228 142.06 368.294 142.136 368.35 142.229C368.411 142.329 368.455 142.439 368.498 142.583C368.532 142.7 368.542 142.869 368.542 143.01C368.542 143.151 368.532 143.32 368.498 143.437C368.455 143.581 368.411 143.691 368.35 143.791C368.294 143.884 368.228 143.96 368.163 144.036L368.157 144.043C367.601 144.691 366.648 145.507 365.353 145.507C364.058 145.507 363.105 144.691 362.55 144.043C362.548 144.041 362.545 144.038 362.543 144.036C362.478 143.96 362.413 143.884 362.356 143.791C362.296 143.691 362.251 143.581 362.209 143.437C362.175 143.32 362.164 143.151 362.164 143.01C362.164 142.869 362.175 142.7 362.209 142.583C362.251 142.439 362.296 142.329 362.356 142.229C362.413 142.136 362.478 142.06 362.543 141.984C362.545 141.982 362.548 141.979 362.55 141.977Z" fill="#183C81"/>
<path fill-rule="evenodd" clip-rule="evenodd" d="M365.352 142.455C365.046 142.455 364.797 142.703 364.797 143.01C364.797 143.316 365.046 143.565 365.352 143.565C365.659 143.565 365.907 143.316 365.907 143.01C365.907 142.703 365.659 142.455 365.352 142.455ZM364.242 143.01C364.242 142.397 364.739 141.9 365.352 141.9C365.965 141.9 366.462 142.397 366.462 143.01C366.462 143.623 365.965 144.12 365.352 144.12C364.739 144.12 364.242 143.623 364.242 143.01Z" fill="#183C81"/>
</g>
</g>
<g clip-path="url(#clip43_654_3821)">
<path d="M371.531 145.01L373.646 140.828V140.793H371.2V140.166H374.403V140.814L372.295 145.01H371.531Z" fill="#183C81"/>
</g>
</g>
</g>
</g>
</g>
<g filter="url(#filter6_ddd_654_3821)">
<g clip-path="url(#clip44_654_3821)">
<rect x="389.094" y="134.3" width="37.74" height="17.75" rx="6" fill="white"/>
<g clip-path="url(#clip45_654_3821)">
<path fill-rule="evenodd" clip-rule="evenodd" d="M395.951 139.148C395.87 139.148 395.792 139.18 395.735 139.237L394.429 140.543C394.31 140.662 394.31 140.856 394.429 140.975C394.548 141.094 394.742 141.094 394.861 140.975L395.646 140.19V143.371C395.646 143.539 395.782 143.676 395.951 143.676C396.12 143.676 396.256 143.539 396.256 143.371V140.19L397.041 140.975C397.16 141.094 397.353 141.094 397.473 140.975C397.592 140.856 397.592 140.662 397.473 140.543L396.167 139.237C396.11 139.18 396.032 139.148 395.951 139.148Z" fill="#75777C"/>
<path fill-rule="evenodd" clip-rule="evenodd" d="M398.888 144.982C398.808 144.982 398.73 144.95 398.673 144.893L397.367 143.587C397.248 143.468 397.248 143.274 397.367 143.155C397.486 143.036 397.679 143.036 397.798 143.155L398.583 143.94V140.759C398.583 140.591 398.72 140.454 398.888 140.454C399.057 140.454 399.194 140.591 399.194 140.759V143.94L399.979 143.155C400.098 143.036 400.291 143.036 400.41 143.155C400.529 143.274 400.529 143.468 400.41 143.587L399.104 144.893C399.047 144.95 398.969 144.982 398.888 144.982Z" fill="#75777C"/>
</g>
<rect x="406.855" y="140.96" width="15.54" height="4.43" rx="2.215" fill="#E6E7EA"/>
</g>
</g>
<g clip-path="url(#clip46_654_3821)">
<g clip-path="url(#clip47_654_3821)">
<mask id="path-96-inside-1_654_3821" fill="white">
<path d="M226.062 160.93H370.363V183.14H226.062V160.93Z"/>
</mask>
<path d="M370.363 160.93H371.363V159.93H370.363V160.93ZM370.363 183.14V184.14H371.363V183.14H370.363ZM226.062 161.93H370.363V159.93H226.062V161.93ZM369.363 160.93V183.14H371.363V160.93H369.363ZM370.363 182.14H226.062V184.14H370.363V182.14Z" fill="#EEEFF1" mask="url(#path-96-inside-1_654_3821)"/>
<rect x="231.504" y="168.59" width="6.88" height="6.88" rx="3" fill="white" stroke="#EEEFF1" stroke-width="2"/>
<path fill-rule="evenodd" clip-rule="evenodd" d="M249.376 175.73C251.419 175.73 253.076 174.074 253.076 172.03C253.076 169.987 251.419 168.33 249.376 168.33C247.332 168.33 245.676 169.987 245.676 172.03C245.676 174.074 247.332 175.73 249.376 175.73ZM247.701 171.097C247.609 171.097 247.525 171.15 247.485 171.233C247.446 171.316 247.457 171.415 247.515 171.487L249.192 173.563C249.237 173.619 249.306 173.652 249.378 173.652C249.45 173.652 249.519 173.619 249.564 173.563L251.241 171.487C251.299 171.415 251.311 171.316 251.271 171.233C251.231 171.15 251.147 171.097 251.055 171.097H247.701Z" fill="#5C5E63"/>
<rect x="258.254" y="169.81" width="48.84" height="4.44" rx="2.22" fill="#EEEFF1"/>
<mask id="path-101-inside-2_654_3821" fill="white">
<path d="M370.363 160.93H514.663V183.14H370.363V160.93Z"/>
</mask>
<path d="M514.663 160.93H515.663V159.93H514.663V160.93ZM514.663 183.14V184.14H515.663V183.14H514.663ZM370.363 161.93H514.663V159.93H370.363V161.93ZM513.663 160.93V183.14H515.663V160.93H513.663ZM514.663 182.14H370.363V184.14H514.663V182.14Z" fill="#EEEFF1" mask="url(#path-101-inside-2_654_3821)"/>
<path fill-rule="evenodd" clip-rule="evenodd" d="M380.356 175.73C382.4 175.73 384.056 174.074 384.056 172.03C384.056 169.987 382.4 168.33 380.356 168.33C378.313 168.33 376.656 169.987 376.656 172.03C376.656 174.074 378.313 175.73 380.356 175.73ZM378.682 171.097C378.59 171.097 378.506 171.15 378.466 171.233C378.426 171.316 378.438 171.415 378.496 171.487L380.172 173.563C380.218 173.619 380.286 173.652 380.359 173.652C380.431 173.652 380.499 173.619 380.545 173.563L382.221 171.487C382.279 171.415 382.291 171.316 382.251 171.233C382.211 171.15 382.127 171.097 382.035 171.097H378.682Z" fill="#5C5E63"/>
<rect x="389.234" y="169.81" width="48.84" height="4.44" rx="2.22" fill="#EEEFF1"/>
<mask id="path-105-inside-3_654_3821" fill="white">
<path d="M514.664 160.93H658.964V183.14H514.664V160.93Z"/>
</mask>
<path d="M658.964 160.93H659.964V159.93H658.964V160.93ZM658.964 183.14V184.14H659.964V183.14H658.964ZM514.664 161.93H658.964V159.93H514.664V161.93ZM657.964 160.93V183.14H659.964V160.93H657.964ZM658.964 182.14H514.664V184.14H658.964V182.14Z" fill="#EEEFF1" mask="url(#path-105-inside-3_654_3821)"/>
<path fill-rule="evenodd" clip-rule="evenodd" d="M524.657 175.73C526.7 175.73 528.357 174.074 528.357 172.03C528.357 169.987 526.7 168.33 524.657 168.33C522.614 168.33 520.957 169.987 520.957 172.03C520.957 174.074 522.614 175.73 524.657 175.73ZM522.983 171.097C522.89 171.097 522.806 171.15 522.767 171.233C522.727 171.316 522.738 171.415 522.796 171.487L524.473 173.563C524.518 173.619 524.587 173.652 524.659 173.652C524.732 173.652 524.8 173.619 524.846 173.563L526.522 171.487C526.58 171.415 526.592 171.316 526.552 171.233C526.512 171.15 526.428 171.097 526.336 171.097H522.983Z" fill="#5C5E63"/>
<rect x="533.535" y="169.81" width="48.84" height="4.44" rx="2.22" fill="#EEEFF1"/>
</g>
<mask id="path-109-inside-4_654_3821" fill="white">
<path d="M226.062 183.14H370.363V203.11H226.062V183.14Z"/>
</mask>
<path d="M370.363 203.11V204.11H371.363V203.11H370.363ZM369.363 183.14V203.11H371.363V183.14H369.363ZM370.363 202.11H226.062V204.11H370.363V202.11Z" fill="#EEEFF1" mask="url(#path-109-inside-4_654_3821)"/>
<rect x="231.504" y="189.41" width="6.88" height="6.88" rx="3" fill="white" stroke="#EEEFF1" stroke-width="2"/>
<rect x="242.715" y="187.3" width="48.84" height="11.1" rx="5.55" fill="white"/>
<rect x="243.824" y="188.41" width="8.88" height="8.88" rx="4.44" fill="#D1D3D6"/>
<mask id="path-114-inside-5_654_3821" fill="white">
<path d="M370.363 183.14H514.663V203.11H370.363V183.14Z"/>
</mask>
<path d="M514.663 203.11V204.11H515.663V203.11H514.663ZM513.663 183.14V203.11H515.663V183.14H513.663ZM514.663 202.11H370.363V204.11H514.663V202.11Z" fill="#EEEFF1" mask="url(#path-114-inside-5_654_3821)"/>
<mask id="path-116-inside-6_654_3821" fill="white">
<path d="M514.664 183.14H658.964V203.11H514.664V183.14Z"/>
</mask>
<path d="M658.964 203.11V204.11H659.964V203.11H658.964ZM657.964 183.14V203.11H659.964V183.14H657.964ZM658.964 202.11H514.664V204.11H658.964V202.11Z" fill="#EEEFF1" mask="url(#path-116-inside-6_654_3821)"/>
<mask id="path-118-inside-7_654_3821" fill="white">
<path d="M226.062 203.11H370.363V223.1H226.062V203.11Z"/>
</mask>
<path d="M370.363 223.1V224.1H371.363V223.1H370.363ZM369.363 203.11V223.1H371.363V203.11H369.363ZM370.363 222.1H226.062V224.1H370.363V222.1Z" fill="#EEEFF1" mask="url(#path-118-inside-7_654_3821)"/>
<rect x="231.504" y="209.39" width="6.88" height="6.88" rx="3" fill="white" stroke="#EEEFF1" stroke-width="2"/>
<rect x="242.715" y="207.28" width="48.84" height="11.1" rx="5.55" fill="white"/>
<rect x="243.824" y="208.39" width="8.88" height="8.88" rx="4.44" fill="#D1D3D6"/>
<mask id="path-123-inside-8_654_3821" fill="white">
<path d="M370.363 203.11H514.663V223.1H370.363V203.11Z"/>
</mask>
<path d="M514.663 223.1V224.1H515.663V223.1H514.663ZM513.663 203.11V223.1H515.663V203.11H513.663ZM514.663 222.1H370.363V224.1H514.663V222.1Z" fill="#EEEFF1" mask="url(#path-123-inside-8_654_3821)"/>
<mask id="path-125-inside-9_654_3821" fill="white">
<path d="M514.664 203.11H658.964V223.1H514.664V203.11Z"/>
</mask>
<path d="M658.964 223.1V224.1H659.964V223.1H658.964ZM657.964 203.11V223.1H659.964V203.11H657.964ZM658.964 222.1H514.664V224.1H658.964V222.1Z" fill="#EEEFF1" mask="url(#path-125-inside-9_654_3821)"/>
<mask id="path-127-inside-10_654_3821" fill="white">
<path d="M226.062 223.1H370.363V243.08H226.062V223.1Z"/>
</mask>
<path d="M370.363 243.08V244.08H371.363V243.08H370.363ZM369.363 223.1V243.08H371.363V223.1H369.363ZM370.363 242.08H226.062V244.08H370.363V242.08Z" fill="#EEEFF1" mask="url(#path-127-inside-10_654_3821)"/>
<rect x="231.504" y="229.37" width="6.88" height="6.88" rx="3" fill="white" stroke="#EEEFF1" stroke-width="2"/>
<rect x="242.715" y="227.26" width="48.84" height="11.1" rx="5.55" fill="white"/>
<rect x="243.824" y="228.37" width="8.88" height="8.88" rx="4.44" fill="#D1D3D6"/>
<mask id="path-132-inside-11_654_3821" fill="white">
<path d="M370.363 223.1H514.663V243.08H370.363V223.1Z"/>
</mask>
<path d="M514.663 243.08V244.08H515.663V243.08H514.663ZM513.663 223.1V243.08H515.663V223.1H513.663ZM514.663 242.08H370.363V244.08H514.663V242.08Z" fill="#EEEFF1" mask="url(#path-132-inside-11_654_3821)"/>
<mask id="path-134-inside-12_654_3821" fill="white">
<path d="M514.664 223.1H658.964V243.08H514.664V223.1Z"/>
</mask>
<path d="M658.964 243.08V244.08H659.964V243.08H658.964ZM657.964 223.1V243.08H659.964V223.1H657.964ZM658.964 242.08H514.664V244.08H658.964V242.08Z" fill="#EEEFF1" mask="url(#path-134-inside-12_654_3821)"/>
<mask id="path-136-inside-13_654_3821" fill="white">
<path d="M226.062 243.08H370.363V263.05H226.062V243.08Z"/>
</mask>
<path d="M370.363 263.05V264.05H371.363V263.05H370.363ZM369.363 243.08V263.05H371.363V243.08H369.363ZM370.363 262.05H226.062V264.05H370.363V262.05Z" fill="#EEEFF1" mask="url(#path-136-inside-13_654_3821)"/>
<rect x="231.504" y="249.35" width="6.88" height="6.88" rx="3" fill="white" stroke="#EEEFF1" stroke-width="2"/>
<rect x="242.715" y="247.24" width="48.84" height="11.1" rx="5.55" fill="white"/>
<rect x="243.824" y="248.35" width="8.88" height="8.88" rx="4.44" fill="#D1D3D6"/>
<mask id="path-141-inside-14_654_3821" fill="white">
<path d="M370.363 243.08H514.663V263.05H370.363V243.08Z"/>
</mask>
<path d="M514.663 263.05V264.05H515.663V263.05H514.663ZM513.663 243.08V263.05H515.663V243.08H513.663ZM514.663 262.05H370.363V264.05H514.663V262.05Z" fill="#EEEFF1" mask="url(#path-141-inside-14_654_3821)"/>
<mask id="path-143-inside-15_654_3821" fill="white">
<path d="M514.664 243.08H658.964V263.05H514.664V243.08Z"/>
</mask>
<path d="M658.964 263.05V264.05H659.964V263.05H658.964ZM657.964 243.08V263.05H659.964V243.08H657.964ZM658.964 262.05H514.664V264.05H658.964V262.05Z" fill="#EEEFF1" mask="url(#path-143-inside-15_654_3821)"/>
<mask id="path-145-inside-16_654_3821" fill="white">
<path d="M226.062 263.05H370.363V283.04H226.062V263.05Z"/>
</mask>
<path d="M370.363 283.04V284.04H371.363V283.04H370.363ZM369.363 263.05V283.04H371.363V263.05H369.363ZM370.363 282.04H226.062V284.04H370.363V282.04Z" fill="#EEEFF1" mask="url(#path-145-inside-16_654_3821)"/>
<rect x="231.504" y="269.33" width="6.88" height="6.88" rx="3" fill="white" stroke="#EEEFF1" stroke-width="2"/>
<rect x="242.715" y="267.22" width="48.84" height="11.1" rx="5.55" fill="white"/>
<rect x="243.824" y="268.33" width="8.88" height="8.88" rx="4.44" fill="#D1D3D6"/>
<mask id="path-150-inside-17_654_3821" fill="white">
<path d="M370.363 263.05H514.663V283.04H370.363V263.05Z"/>
</mask>
<path d="M514.663 283.04V284.04H515.663V283.04H514.663ZM513.663 263.05V283.04H515.663V263.05H513.663ZM514.663 282.04H370.363V284.04H514.663V282.04Z" fill="#EEEFF1" mask="url(#path-150-inside-17_654_3821)"/>
<mask id="path-152-inside-18_654_3821" fill="white">
<path d="M514.664 263.05H658.964V283.04H514.664V263.05Z"/>
</mask>
<path d="M658.964 283.04V284.04H659.964V283.04H658.964ZM657.964 263.05V283.04H659.964V263.05H657.964ZM658.964 282.04H514.664V284.04H658.964V282.04Z" fill="#EEEFF1" mask="url(#path-152-inside-18_654_3821)"/>
<mask id="path-154-inside-19_654_3821" fill="white">
<path d="M226.062 283.04H370.363V303.02H226.062V283.04Z"/>
</mask>
<path d="M370.363 303.02V304.02H371.363V303.02H370.363ZM369.363 283.04V303.02H371.363V283.04H369.363ZM370.363 302.02H226.062V304.02H370.363V302.02Z" fill="#EEEFF1" mask="url(#path-154-inside-19_654_3821)"/>
<rect x="231.504" y="289.31" width="6.88" height="6.88" rx="3" fill="white" stroke="#EEEFF1" stroke-width="2"/>
<rect x="242.715" y="287.2" width="48.84" height="11.1" rx="5.55" fill="white"/>
<rect x="243.824" y="288.31" width="8.88" height="8.88" rx="4.44" fill="#D1D3D6"/>
<mask id="path-159-inside-20_654_3821" fill="white">
<path d="M370.363 283.04H514.663V303.02H370.363V283.04Z"/>
</mask>
<path d="M514.663 303.02V304.02H515.663V303.02H514.663ZM513.663 283.04V303.02H515.663V283.04H513.663ZM514.663 302.02H370.363V304.02H514.663V302.02Z" fill="#EEEFF1" mask="url(#path-159-inside-20_654_3821)"/>
<mask id="path-161-inside-21_654_3821" fill="white">
<path d="M514.664 283.04H658.964V303.02H514.664V283.04Z"/>
</mask>
<path d="M658.964 303.02V304.02H659.964V303.02H658.964ZM657.964 283.04V303.02H659.964V283.04H657.964ZM658.964 302.02H514.664V304.02H658.964V302.02Z" fill="#EEEFF1" mask="url(#path-161-inside-21_654_3821)"/>
<mask id="path-163-inside-22_654_3821" fill="white">
<path d="M226.062 303.02H370.363V322.99H226.062V303.02Z"/>
</mask>
<path d="M370.363 322.99V323.99H371.363V322.99H370.363ZM369.363 303.02V322.99H371.363V303.02H369.363ZM370.363 321.99H226.062V323.99H370.363V321.99Z" fill="#EEEFF1" mask="url(#path-163-inside-22_654_3821)"/>
<rect x="231.504" y="309.29" width="6.88" height="6.88" rx="3" fill="white" stroke="#EEEFF1" stroke-width="2"/>
<rect x="242.715" y="307.18" width="48.84" height="11.1" rx="5.55" fill="white"/>
<rect x="243.824" y="308.29" width="8.88" height="8.88" rx="4.44" fill="#D1D3D6"/>
<mask id="path-168-inside-23_654_3821" fill="white">
<path d="M370.363 303.02H514.663V322.99H370.363V303.02Z"/>
</mask>
<path d="M514.663 322.99V323.99H515.663V322.99H514.663ZM513.663 303.02V322.99H515.663V303.02H513.663ZM514.663 321.99H370.363V323.99H514.663V321.99Z" fill="#EEEFF1" mask="url(#path-168-inside-23_654_3821)"/>
<mask id="path-170-inside-24_654_3821" fill="white">
<path d="M514.664 303.02H658.964V322.99H514.664V303.02Z"/>
</mask>
<path d="M658.964 322.99V323.99H659.964V322.99H658.964ZM657.964 303.02V322.99H659.964V303.02H657.964ZM658.964 321.99H514.664V323.99H658.964V321.99Z" fill="#EEEFF1" mask="url(#path-170-inside-24_654_3821)"/>
<mask id="path-172-inside-25_654_3821" fill="white">
<path d="M226.062 322.99H370.363V342.97H226.062V322.99Z"/>
</mask>
<path d="M370.363 342.97V343.97H371.363V342.97H370.363ZM369.363 322.99V342.97H371.363V322.99H369.363ZM370.363 341.97H226.062V343.97H370.363V341.97Z" fill="#EEEFF1" mask="url(#path-172-inside-25_654_3821)"/>
<rect x="231.504" y="329.27" width="6.88" height="6.88" rx="3" fill="white" stroke="#EEEFF1" stroke-width="2"/>
<rect x="242.715" y="327.16" width="48.84" height="11.1" rx="5.55" fill="white"/>
<rect x="243.824" y="328.27" width="8.88" height="8.88" rx="4.44" fill="#D1D3D6"/>
<mask id="path-177-inside-26_654_3821" fill="white">
<path d="M370.363 322.99H514.663V342.97H370.363V322.99Z"/>
</mask>
<path d="M514.663 342.97V343.97H515.663V342.97H514.663ZM513.663 322.99V342.97H515.663V322.99H513.663ZM514.663 341.97H370.363V343.97H514.663V341.97Z" fill="#EEEFF1" mask="url(#path-177-inside-26_654_3821)"/>
<mask id="path-179-inside-27_654_3821" fill="white">
<path d="M514.664 322.99H658.964V342.97H514.664V322.99Z"/>
</mask>
<path d="M658.964 342.97V343.97H659.964V342.97H658.964ZM657.964 322.99V342.97H659.964V322.99H657.964ZM658.964 341.97H514.664V343.97H658.964V341.97Z" fill="#EEEFF1" mask="url(#path-179-inside-27_654_3821)"/>
<mask id="path-181-inside-28_654_3821" fill="white">
<path d="M226.062 342.97H370.363V362.96H226.062V342.97Z"/>
</mask>
<path d="M370.363 362.96V363.96H371.363V362.96H370.363ZM369.363 342.97V362.96H371.363V342.97H369.363ZM370.363 361.96H226.062V363.96H370.363V361.96Z" fill="#EEEFF1" mask="url(#path-181-inside-28_654_3821)"/>
<rect x="231.504" y="349.25" width="6.88" height="6.88" rx="3" fill="white" stroke="#EEEFF1" stroke-width="2"/>
<rect x="242.715" y="347.14" width="48.84" height="11.1" rx="5.55" fill="white"/>
<rect x="243.824" y="348.25" width="8.88" height="8.88" rx="4.44" fill="#D1D3D6"/>
<mask id="path-186-inside-29_654_3821" fill="white">
<path d="M370.363 342.97H514.663V362.96H370.363V342.97Z"/>
</mask>
<path d="M514.663 362.96V363.96H515.663V362.96H514.663ZM513.663 342.97V362.96H515.663V342.97H513.663ZM514.663 361.96H370.363V363.96H514.663V361.96Z" fill="#EEEFF1" mask="url(#path-186-inside-29_654_3821)"/>
<mask id="path-188-inside-30_654_3821" fill="white">
<path d="M514.664 342.97H658.964V362.96H514.664V342.97Z"/>
</mask>
<path d="M658.964 362.96V363.96H659.964V362.96H658.964ZM657.964 342.97V362.96H659.964V342.97H657.964ZM658.964 361.96H514.664V363.96H658.964V361.96Z" fill="#EEEFF1" mask="url(#path-188-inside-30_654_3821)"/>
<mask id="path-190-inside-31_654_3821" fill="white">
<path d="M226.062 362.96H370.363V382.93H226.062V362.96Z"/>
</mask>
<path d="M370.363 382.93V383.93H371.363V382.93H370.363ZM369.363 362.96V382.93H371.363V362.96H369.363ZM370.363 381.93H226.062V383.93H370.363V381.93Z" fill="#EEEFF1" mask="url(#path-190-inside-31_654_3821)"/>
<rect x="231.504" y="369.23" width="6.88" height="6.88" rx="3" fill="white" stroke="#EEEFF1" stroke-width="2"/>
<rect x="242.715" y="367.12" width="48.84" height="11.1" rx="5.55" fill="white"/>
<rect x="243.824" y="368.23" width="8.88" height="8.88" rx="4.44" fill="#D1D3D6"/>
<mask id="path-195-inside-32_654_3821" fill="white">
<path d="M370.363 362.96H514.663V382.93H370.363V362.96Z"/>
</mask>
<path d="M514.663 382.93V383.93H515.663V382.93H514.663ZM513.663 362.96V382.93H515.663V362.96H513.663ZM514.663 381.93H370.363V383.93H514.663V381.93Z" fill="#EEEFF1" mask="url(#path-195-inside-32_654_3821)"/>
<mask id="path-197-inside-33_654_3821" fill="white">
<path d="M514.664 362.96H658.964V382.93H514.664V362.96Z"/>
</mask>
<path d="M658.964 382.93V383.93H659.964V382.93H658.964ZM657.964 362.96V382.93H659.964V362.96H657.964ZM658.964 381.93H514.664V383.93H658.964V381.93Z" fill="#EEEFF1" mask="url(#path-197-inside-33_654_3821)"/>
<mask id="path-199-inside-34_654_3821" fill="white">
<path d="M226.062 382.93H370.363V402.92H226.062V382.93Z"/>
</mask>
<path d="M370.363 402.92V403.92H371.363V402.92H370.363ZM369.363 382.93V402.92H371.363V382.93H369.363ZM370.363 401.92H226.062V403.92H370.363V401.92Z" fill="#EEEFF1" mask="url(#path-199-inside-34_654_3821)"/>
<rect x="231.504" y="389.21" width="6.88" height="6.88" rx="3" fill="white" stroke="#EEEFF1" stroke-width="2"/>
<rect x="242.715" y="387.1" width="48.84" height="11.1" rx="5.55" fill="white"/>
<rect x="243.824" y="388.21" width="8.88" height="8.88" rx="4.44" fill="#D1D3D6"/>
<mask id="path-204-inside-35_654_3821" fill="white">
<path d="M370.363 382.93H514.663V402.92H370.363V382.93Z"/>
</mask>
<path d="M514.663 402.92V403.92H515.663V402.92H514.663ZM513.663 382.93V402.92H515.663V382.93H513.663ZM514.663 401.92H370.363V403.92H514.663V401.92Z" fill="#EEEFF1" mask="url(#path-204-inside-35_654_3821)"/>
<mask id="path-206-inside-36_654_3821" fill="white">
<path d="M514.664 382.93H658.964V402.92H514.664V382.93Z"/>
</mask>
<path d="M658.964 402.92V403.92H659.964V402.92H658.964ZM657.964 382.93V402.92H659.964V382.93H657.964ZM658.964 401.92H514.664V403.92H658.964V401.92Z" fill="#EEEFF1" mask="url(#path-206-inside-36_654_3821)"/>
<mask id="path-208-inside-37_654_3821" fill="white">
<path d="M226.062 402.92H370.363V422.9H226.062V402.92Z"/>
</mask>
<path d="M370.363 422.9V423.9H371.363V422.9H370.363ZM369.363 402.92V422.9H371.363V402.92H369.363ZM370.363 421.9H226.062V423.9H370.363V421.9Z" fill="#EEEFF1" mask="url(#path-208-inside-37_654_3821)"/>
<rect x="231.504" y="409.19" width="6.88" height="6.88" rx="3" fill="white" stroke="#EEEFF1" stroke-width="2"/>
<rect x="242.715" y="407.08" width="48.84" height="11.1" rx="5.55" fill="white"/>
<rect x="243.824" y="408.19" width="8.88" height="8.88" rx="4.44" fill="#D1D3D6"/>
<mask id="path-213-inside-38_654_3821" fill="white">
<path d="M370.363 402.92H514.663V422.9H370.363V402.92Z"/>
</mask>
<path d="M514.663 422.9V423.9H515.663V422.9H514.663ZM513.663 402.92V422.9H515.663V402.92H513.663ZM514.663 421.9H370.363V423.9H514.663V421.9Z" fill="#EEEFF1" mask="url(#path-213-inside-38_654_3821)"/>
<mask id="path-215-inside-39_654_3821" fill="white">
<path d="M514.664 402.92H658.964V422.9H514.664V402.92Z"/>
</mask>
<path d="M658.964 422.9V423.9H659.964V422.9H658.964ZM657.964 402.92V422.9H659.964V402.92H657.964ZM658.964 421.9H514.664V423.9H658.964V421.9Z" fill="#EEEFF1" mask="url(#path-215-inside-39_654_3821)"/>
<mask id="path-217-inside-40_654_3821" fill="white">
<path d="M226.062 422.9H370.363V442.88H226.062V422.9Z"/>
</mask>
<path d="M370.363 442.88V443.88H371.363V442.88H370.363ZM369.363 422.9V442.88H371.363V422.9H369.363ZM370.363 441.88H226.062V443.88H370.363V441.88Z" fill="#EEEFF1" mask="url(#path-217-inside-40_654_3821)"/>
<rect x="231.504" y="429.17" width="6.88" height="6.88" rx="3" fill="white" stroke="#EEEFF1" stroke-width="2"/>
<rect x="242.715" y="427.06" width="48.84" height="11.1" rx="5.55" fill="white"/>
<rect x="243.824" y="428.17" width="8.88" height="8.88" rx="4.44" fill="#D1D3D6"/>
<mask id="path-222-inside-41_654_3821" fill="white">
<path d="M370.363 422.9H514.663V442.88H370.363V422.9Z"/>
</mask>
<path d="M514.663 442.88V443.88H515.663V442.88H514.663ZM513.663 422.9V442.88H515.663V422.9H513.663ZM514.663 441.88H370.363V443.88H514.663V441.88Z" fill="#EEEFF1" mask="url(#path-222-inside-41_654_3821)"/>
<mask id="path-224-inside-42_654_3821" fill="white">
<path d="M514.664 422.9H658.964V442.88H514.664V422.9Z"/>
</mask>
<path d="M658.964 442.88V443.88H659.964V442.88H658.964ZM657.964 422.9V442.88H659.964V422.9H657.964ZM658.964 441.88H514.664V443.88H658.964V441.88Z" fill="#EEEFF1" mask="url(#path-224-inside-42_654_3821)"/>
<mask id="path-226-inside-43_654_3821" fill="white">
<path d="M226.062 442.88H370.363V462.85H226.062V442.88Z"/>
</mask>
<path d="M370.363 462.85V463.85H371.363V462.85H370.363ZM369.363 442.88V462.85H371.363V442.88H369.363ZM370.363 461.85H226.062V463.85H370.363V461.85Z" fill="#EEEFF1" mask="url(#path-226-inside-43_654_3821)"/>
<rect x="231.504" y="449.15" width="6.88" height="6.88" rx="3" fill="white" stroke="#EEEFF1" stroke-width="2"/>
<rect x="242.715" y="447.04" width="48.84" height="11.1" rx="5.55" fill="white"/>
<rect x="243.824" y="448.15" width="8.88" height="8.88" rx="4.44" fill="#D1D3D6"/>
<mask id="path-231-inside-44_654_3821" fill="white">
<path d="M370.363 442.88H514.663V462.85H370.363V442.88Z"/>
</mask>
<path d="M514.663 462.85V463.85H515.663V462.85H514.663ZM513.663 442.88V462.85H515.663V442.88H513.663ZM514.663 461.85H370.363V463.85H514.663V461.85Z" fill="#EEEFF1" mask="url(#path-231-inside-44_654_3821)"/>
<mask id="path-233-inside-45_654_3821" fill="white">
<path d="M514.664 442.88H658.964V462.85H514.664V442.88Z"/>
</mask>
<path d="M658.964 462.85V463.85H659.964V462.85H658.964ZM657.964 442.88V462.85H659.964V442.88H657.964ZM658.964 461.85H514.664V463.85H658.964V461.85Z" fill="#EEEFF1" mask="url(#path-233-inside-45_654_3821)"/>
<mask id="path-235-inside-46_654_3821" fill="white">
<path d="M226.062 462.85H370.363V482.83H226.062V462.85Z"/>
</mask>
<path d="M370.363 482.83V483.83H371.363V482.83H370.363ZM369.363 462.85V482.83H371.363V462.85H369.363ZM370.363 481.83H226.062V483.83H370.363V481.83Z" fill="#EEEFF1" mask="url(#path-235-inside-46_654_3821)"/>
<rect x="231.504" y="469.13" width="6.88" height="6.88" rx="3" fill="white" stroke="#EEEFF1" stroke-width="2"/>
<rect x="242.715" y="467.02" width="48.84" height="11.1" rx="5.55" fill="white"/>
<rect x="243.824" y="468.13" width="8.88" height="8.88" rx="4.44" fill="#D1D3D6"/>
<mask id="path-240-inside-47_654_3821" fill="white">
<path d="M370.363 462.85H514.663V482.83H370.363V462.85Z"/>
</mask>
<path d="M514.663 482.83V483.83H515.663V482.83H514.663ZM513.663 462.85V482.83H515.663V462.85H513.663ZM514.663 481.83H370.363V483.83H514.663V481.83Z" fill="#EEEFF1" mask="url(#path-240-inside-47_654_3821)"/>
<mask id="path-242-inside-48_654_3821" fill="white">
<path d="M514.664 462.85H658.964V482.83H514.664V462.85Z"/>
</mask>
<path d="M658.964 482.83V483.83H659.964V482.83H658.964ZM657.964 462.85V482.83H659.964V462.85H657.964ZM658.964 481.83H514.664V483.83H658.964V481.83Z" fill="#EEEFF1" mask="url(#path-242-inside-48_654_3821)"/>
<mask id="path-244-inside-49_654_3821" fill="white">
<path d="M226.062 482.83H370.363V502.82H226.062V482.83Z"/>
</mask>
<path d="M370.363 502.82V503.82H371.363V502.82H370.363ZM369.363 482.83V502.82H371.363V482.83H369.363ZM370.363 501.82H226.062V503.82H370.363V501.82Z" fill="#EEEFF1" mask="url(#path-244-inside-49_654_3821)"/>
<rect x="231.504" y="489.11" width="6.88" height="6.88" rx="3" fill="white" stroke="#EEEFF1" stroke-width="2"/>
<rect x="242.715" y="487" width="48.84" height="11.1" rx="5.55" fill="white"/>
<rect x="243.824" y="488.11" width="8.88" height="8.88" rx="4.44" fill="#D1D3D6"/>
<mask id="path-249-inside-50_654_3821" fill="white">
<path d="M370.363 482.83H514.663V502.82H370.363V482.83Z"/>
</mask>
<path d="M514.663 502.82V503.82H515.663V502.82H514.663ZM513.663 482.83V502.82H515.663V482.83H513.663ZM514.663 501.82H370.363V503.82H514.663V501.82Z" fill="#EEEFF1" mask="url(#path-249-inside-50_654_3821)"/>
<mask id="path-251-inside-51_654_3821" fill="white">
<path d="M514.664 482.83H658.964V502.82H514.664V482.83Z"/>
</mask>
<path d="M658.964 502.82V503.82H659.964V502.82H658.964ZM657.964 482.83V502.82H659.964V482.83H657.964ZM658.964 501.82H514.664V503.82H658.964V501.82Z" fill="#EEEFF1" mask="url(#path-251-inside-51_654_3821)"/>
<mask id="path-253-inside-52_654_3821" fill="white">
<path d="M226.062 502.82H370.363V522.8H226.062V502.82Z"/>
</mask>
<path d="M370.363 522.8V523.8H371.363V522.8H370.363ZM369.363 502.82V522.8H371.363V502.82H369.363ZM370.363 521.8H226.062V523.8H370.363V521.8Z" fill="#EEEFF1" mask="url(#path-253-inside-52_654_3821)"/>
<rect x="231.504" y="509.09" width="6.88" height="6.88" rx="3" fill="white" stroke="#EEEFF1" stroke-width="2"/>
<rect x="242.715" y="506.98" width="48.84" height="11.1" rx="5.55" fill="white"/>
<rect x="243.824" y="508.09" width="8.88" height="8.88" rx="4.44" fill="#D1D3D6"/>
<mask id="path-258-inside-53_654_3821" fill="white">
<path d="M370.363 502.82H514.663V522.8H370.363V502.82Z"/>
</mask>
<path d="M514.663 522.8V523.8H515.663V522.8H514.663ZM513.663 502.82V522.8H515.663V502.82H513.663ZM514.663 521.8H370.363V523.8H514.663V521.8Z" fill="#EEEFF1" mask="url(#path-258-inside-53_654_3821)"/>
<mask id="path-260-inside-54_654_3821" fill="white">
<path d="M514.664 502.82H658.964V522.8H514.664V502.82Z"/>
</mask>
<path d="M658.964 522.8V523.8H659.964V522.8H658.964ZM657.964 502.82V522.8H659.964V502.82H657.964ZM658.964 521.8H514.664V523.8H658.964V521.8Z" fill="#EEEFF1" mask="url(#path-260-inside-54_654_3821)"/>
<g clip-path="url(#clip48_654_3821)">
<path fill-rule="evenodd" clip-rule="evenodd" d="M243.267 531.619C243.451 531.619 243.6 531.768 243.6 531.952V535.837C243.6 536.021 243.451 536.17 243.267 536.17C243.083 536.17 242.934 536.021 242.934 535.837V531.952C242.934 531.768 243.083 531.619 243.267 531.619Z" fill="#5C5E63"/>
<path fill-rule="evenodd" clip-rule="evenodd" d="M240.992 533.895C240.992 533.711 241.141 533.562 241.325 533.562H245.21C245.394 533.562 245.543 533.711 245.543 533.895C245.543 534.079 245.394 534.228 245.21 534.228H241.325C241.141 534.228 240.992 534.079 240.992 533.895Z" fill="#5C5E63"/>
</g>
<rect x="250.484" y="531.68" width="36.08" height="4.43" rx="2.215" fill="#EEEFF1"/>
<g clip-path="url(#clip49_654_3821)">
<mask id="path-265-inside-55_654_3821" fill="white">
<path d="M226.062 544.99H370.363V564.97H226.062V544.99Z"/>
</mask>
<path d="M370.363 544.99H371.363V543.99H370.363V544.99ZM370.363 564.97V565.97H371.363V564.97H370.363ZM226.062 545.99H370.363V543.99H226.062V545.99ZM369.363 544.99V564.97H371.363V544.99H369.363ZM370.363 563.97H226.062V565.97H370.363V563.97Z" fill="#EEEFF1" mask="url(#path-265-inside-55_654_3821)"/>
<rect x="314.312" y="552.765" width="39.96" height="4.44" rx="2.22" fill="#EEEFF1"/>
<g clip-path="url(#clip50_654_3821)">
<path fill-rule="evenodd" clip-rule="evenodd" d="M359.597 553.937C359.716 553.818 359.91 553.818 360.029 553.937L361.478 555.386L362.927 553.937C363.046 553.818 363.24 553.818 363.359 553.937C363.478 554.056 363.478 554.249 363.359 554.369L361.694 556.034C361.575 556.153 361.381 556.153 361.262 556.034L359.597 554.369C359.478 554.249 359.478 554.056 359.597 553.937Z" fill="#5C5E63"/>
</g>
<mask id="path-269-inside-56_654_3821" fill="white">
<path d="M370.363 544.99H514.663V564.97H370.363V544.99Z"/>
</mask>
<path d="M514.663 544.99H515.663V543.99H514.663V544.99ZM514.663 564.97V565.97H515.663V564.97H514.663ZM370.363 545.99H514.663V543.99H370.363V545.99ZM513.663 544.99V564.97H515.663V544.99H513.663ZM514.663 563.97H370.363V565.97H514.663V563.97Z" fill="#EEEFF1" mask="url(#path-269-inside-56_654_3821)"/>
<rect x="458.602" y="552.765" width="39.96" height="4.44" rx="2.22" fill="#EEEFF1"/>
<g clip-path="url(#clip51_654_3821)">
<path fill-rule="evenodd" clip-rule="evenodd" d="M503.906 553.937C504.025 553.818 504.218 553.818 504.337 553.937L505.787 555.386L507.236 553.937C507.355 553.818 507.548 553.818 507.667 553.937C507.787 554.056 507.787 554.249 507.667 554.369L506.002 556.034C505.883 556.153 505.69 556.153 505.571 556.034L503.906 554.369C503.787 554.249 503.787 554.056 503.906 553.937Z" fill="#5C5E63"/>
</g>
<mask id="path-273-inside-57_654_3821" fill="white">
<path d="M514.664 544.99H658.964V564.97H514.664V544.99Z"/>
</mask>
<path d="M658.964 544.99H659.964V543.99H658.964V544.99ZM658.964 564.97V565.97H659.964V564.97H658.964ZM514.664 545.99H658.964V543.99H514.664V545.99ZM657.964 544.99V564.97H659.964V544.99H657.964ZM658.964 563.97H514.664V565.97H658.964V563.97Z" fill="#EEEFF1" mask="url(#path-273-inside-57_654_3821)"/>
</g>
</g>
</g>
</g>
</g>
</g>
<defs>
<filter id="filter0_ddi_654_3821" x="54" y="90" width="819.199" height="519.5" filterUnits="userSpaceOnUse" color-interpolation-filters="sRGB">
<feFlood flood-opacity="0" result="BackgroundImageFix"/>
<feColorMatrix in="SourceAlpha" type="matrix" values="0 0 0 0 0 0 0 0 0 0 0 0 0 0 0 0 0 0 127 0" result="hardAlpha"/>
<feMorphology radius="2" operator="erode" in="SourceAlpha" result="effect1_dropShadow_654_3821"/>
<feOffset dy="4"/>
<feGaussianBlur stdDeviation="6"/>
<feComposite in2="hardAlpha" operator="out"/>
<feColorMatrix type="matrix" values="0 0 0 0 0.109804 0 0 0 0 0.156863 0 0 0 0 0.25098 0 0 0 0.16 0"/>
<feBlend mode="normal" in2="BackgroundImageFix" result="effect1_dropShadow_654_3821"/>
<feColorMatrix in="SourceAlpha" type="matrix" values="0 0 0 0 0 0 0 0 0 0 0 0 0 0 0 0 0 0 127 0" result="hardAlpha"/>
<feMorphology radius="4" operator="erode" in="SourceAlpha" result="effect2_dropShadow_654_3821"/>
<feOffset dy="4"/>
<feGaussianBlur stdDeviation="4"/>
<feComposite in2="hardAlpha" operator="out"/>
<feColorMatrix type="matrix" values="0 0 0 0 0.109804 0 0 0 0 0.156863 0 0 0 0 0.25098 0 0 0 0.12 0"/>
<feBlend mode="normal" in2="effect1_dropShadow_654_3821" result="effect2_dropShadow_654_3821"/>
<feBlend mode="normal" in="SourceGraphic" in2="effect2_dropShadow_654_3821" result="shape"/>
<feColorMatrix in="SourceAlpha" type="matrix" values="0 0 0 0 0 0 0 0 0 0 0 0 0 0 0 0 0 0 127 0" result="hardAlpha"/>
<feMorphology radius="1" operator="erode" in="SourceAlpha" result="effect3_innerShadow_654_3821"/>
<feOffset/>
<feComposite in2="hardAlpha" operator="arithmetic" k2="-1" k3="1"/>
<feColorMatrix type="matrix" values="0 0 0 0 0.109804 0 0 0 0 0.156863 0 0 0 0 0.25098 0 0 0 0.04 0"/>
<feBlend mode="normal" in2="shape" result="effect3_innerShadow_654_3821"/>
</filter>
<filter id="filter1_d_654_3821" x="64" y="96" width="151.961" height="499.5" filterUnits="userSpaceOnUse" color-interpolation-filters="sRGB">
<feFlood flood-opacity="0" result="BackgroundImageFix"/>
<feColorMatrix in="SourceAlpha" type="matrix" values="0 0 0 0 0 0 0 0 0 0 0 0 0 0 0 0 0 0 127 0" result="hardAlpha"/>
<feOffset dx="1"/>
<feComposite in2="hardAlpha" operator="out"/>
<feColorMatrix type="matrix" values="0 0 0 0 0.933333 0 0 0 0 0.937255 0 0 0 0 0.945098 0 0 0 1 0"/>
<feBlend mode="normal" in2="BackgroundImageFix" result="effect1_dropShadow_654_3821"/>
<feBlend mode="normal" in="SourceGraphic" in2="effect1_dropShadow_654_3821" result="shape"/>
</filter>
<filter id="filter2_di_654_3821" x="64.4414" y="131.3" width="150.078" height="25.75" filterUnits="userSpaceOnUse" color-interpolation-filters="sRGB">
<feFlood flood-opacity="0" result="BackgroundImageFix"/>
<feColorMatrix in="SourceAlpha" type="matrix" values="0 0 0 0 0 0 0 0 0 0 0 0 0 0 0 0 0 0 127 0" result="hardAlpha"/>
<feOffset dy="1"/>
<feGaussianBlur stdDeviation="2"/>
<feComposite in2="hardAlpha" operator="out"/>
<feColorMatrix type="matrix" values="0 0 0 0 0.109804 0 0 0 0 0.156863 0 0 0 0 0.25098 0 0 0 0.12 0"/>
<feBlend mode="normal" in2="BackgroundImageFix" result="effect1_dropShadow_654_3821"/>
<feBlend mode="normal" in="SourceGraphic" in2="effect1_dropShadow_654_3821" result="shape"/>
<feColorMatrix in="SourceAlpha" type="matrix" values="0 0 0 0 0 0 0 0 0 0 0 0 0 0 0 0 0 0 127 0" result="hardAlpha"/>
<feMorphology radius="2" operator="erode" in="SourceAlpha" result="effect2_innerShadow_654_3821"/>
<feOffset/>
<feComposite in2="hardAlpha" operator="arithmetic" k2="-1" k3="1"/>
<feColorMatrix type="matrix" values="0 0 0 0 0.109804 0 0 0 0 0.156863 0 0 0 0 0.25098 0 0 0 0.02 0"/>
<feBlend mode="normal" in2="shape" result="effect2_innerShadow_654_3821"/>
</filter>
<filter id="filter3_ddd_654_3821" x="224.062" y="132.3" width="91.6914" height="25.75" filterUnits="userSpaceOnUse" color-interpolation-filters="sRGB">
<feFlood flood-opacity="0" result="BackgroundImageFix"/>
<feColorMatrix in="SourceAlpha" type="matrix" values="0 0 0 0 0 0 0 0 0 0 0 0 0 0 0 0 0 0 127 0" result="hardAlpha"/>
<feMorphology radius="2" operator="erode" in="SourceAlpha" result="effect1_dropShadow_654_3821"/>
<feOffset dy="4"/>
<feGaussianBlur stdDeviation="2"/>
<feComposite in2="hardAlpha" operator="out"/>
<feColorMatrix type="matrix" values="0 0 0 0 0.0941176 0 0 0 0 0.152941 0 0 0 0 0.294118 0 0 0 0.06 0"/>
<feBlend mode="normal" in2="BackgroundImageFix" result="effect1_dropShadow_654_3821"/>
<feColorMatrix in="SourceAlpha" type="matrix" values="0 0 0 0 0 0 0 0 0 0 0 0 0 0 0 0 0 0 127 0" result="hardAlpha"/>
<feMorphology radius="2" operator="erode" in="SourceAlpha" result="effect2_dropShadow_654_3821"/>
<feOffset dy="1"/>
<feGaussianBlur stdDeviation="2"/>
<feComposite in2="hardAlpha" operator="out"/>
<feColorMatrix type="matrix" values="0 0 0 0 0.0941176 0 0 0 0 0.152941 0 0 0 0 0.294118 0 0 0 0.02 0"/>
<feBlend mode="normal" in2="effect1_dropShadow_654_3821" result="effect2_dropShadow_654_3821"/>
<feColorMatrix in="SourceAlpha" type="matrix" values="0 0 0 0 0 0 0 0 0 0 0 0 0 0 0 0 0 0 127 0" result="hardAlpha"/>
<feOffset/>
<feGaussianBlur stdDeviation="1"/>
<feComposite in2="hardAlpha" operator="out"/>
<feColorMatrix type="matrix" values="0 0 0 0 0.878431 0 0 0 0 0.878431 0 0 0 0 0.878431 0 0 0 1 0"/>
<feBlend mode="normal" in2="effect2_dropShadow_654_3821" result="effect3_dropShadow_654_3821"/>
<feBlend mode="normal" in="SourceGraphic" in2="effect3_dropShadow_654_3821" result="shape"/>
</filter>
<filter id="filter4_ddd_654_3821" x="318.453" y="132.3" width="65.9414" height="25.75" filterUnits="userSpaceOnUse" color-interpolation-filters="sRGB">
<feFlood flood-opacity="0" result="BackgroundImageFix"/>
<feColorMatrix in="SourceAlpha" type="matrix" values="0 0 0 0 0 0 0 0 0 0 0 0 0 0 0 0 0 0 127 0" result="hardAlpha"/>
<feMorphology radius="2" operator="erode" in="SourceAlpha" result="effect1_dropShadow_654_3821"/>
<feOffset dy="4"/>
<feGaussianBlur stdDeviation="2"/>
<feComposite in2="hardAlpha" operator="out"/>
<feColorMatrix type="matrix" values="0 0 0 0 0.0941176 0 0 0 0 0.152941 0 0 0 0 0.294118 0 0 0 0.06 0"/>
<feBlend mode="normal" in2="BackgroundImageFix" result="effect1_dropShadow_654_3821"/>
<feColorMatrix in="SourceAlpha" type="matrix" values="0 0 0 0 0 0 0 0 0 0 0 0 0 0 0 0 0 0 127 0" result="hardAlpha"/>
<feMorphology radius="2" operator="erode" in="SourceAlpha" result="effect2_dropShadow_654_3821"/>
<feOffset dy="1"/>
<feGaussianBlur stdDeviation="2"/>
<feComposite in2="hardAlpha" operator="out"/>
<feColorMatrix type="matrix" values="0 0 0 0 0.0941176 0 0 0 0 0.152941 0 0 0 0 0.294118 0 0 0 0.02 0"/>
<feBlend mode="normal" in2="effect1_dropShadow_654_3821" result="effect2_dropShadow_654_3821"/>
<feColorMatrix in="SourceAlpha" type="matrix" values="0 0 0 0 0 0 0 0 0 0 0 0 0 0 0 0 0 0 127 0" result="hardAlpha"/>
<feOffset/>
<feGaussianBlur stdDeviation="1"/>
<feComposite in2="hardAlpha" operator="out"/>
<feColorMatrix type="matrix" values="0 0 0 0 0.878431 0 0 0 0 0.878431 0 0 0 0 0.878431 0 0 0 1 0"/>
<feBlend mode="normal" in2="effect2_dropShadow_654_3821" result="effect3_dropShadow_654_3821"/>
<feBlend mode="normal" in="SourceGraphic" in2="effect3_dropShadow_654_3821" result="shape"/>
</filter>
<filter id="filter5_i_654_3821" x="359.793" y="137.63" width="18.1602" height="11.1001" filterUnits="userSpaceOnUse" color-interpolation-filters="sRGB">
<feFlood flood-opacity="0" result="BackgroundImageFix"/>
<feBlend mode="normal" in="SourceGraphic" in2="BackgroundImageFix" result="shape"/>
<feColorMatrix in="SourceAlpha" type="matrix" values="0 0 0 0 0 0 0 0 0 0 0 0 0 0 0 0 0 0 127 0" result="hardAlpha"/>
<feMorphology radius="1" operator="erode" in="SourceAlpha" result="effect1_innerShadow_654_3821"/>
<feOffset/>
<feComposite in2="hardAlpha" operator="arithmetic" k2="-1" k3="1"/>
<feColorMatrix type="matrix" values="0 0 0 0 0.839216 0 0 0 0 0.898039 0 0 0 0 1 0 0 0 1 0"/>
<feBlend mode="normal" in2="shape" result="effect1_innerShadow_654_3821"/>
</filter>
<filter id="filter6_ddd_654_3821" x="387.094" y="132.3" width="41.7383" height="25.75" filterUnits="userSpaceOnUse" color-interpolation-filters="sRGB">
<feFlood flood-opacity="0" result="BackgroundImageFix"/>
<feColorMatrix in="SourceAlpha" type="matrix" values="0 0 0 0 0 0 0 0 0 0 0 0 0 0 0 0 0 0 127 0" result="hardAlpha"/>
<feMorphology radius="2" operator="erode" in="SourceAlpha" result="effect1_dropShadow_654_3821"/>
<feOffset dy="4"/>
<feGaussianBlur stdDeviation="2"/>
<feComposite in2="hardAlpha" operator="out"/>
<feColorMatrix type="matrix" values="0 0 0 0 0.0941176 0 0 0 0 0.152941 0 0 0 0 0.294118 0 0 0 0.06 0"/>
<feBlend mode="normal" in2="BackgroundImageFix" result="effect1_dropShadow_654_3821"/>
<feColorMatrix in="SourceAlpha" type="matrix" values="0 0 0 0 0 0 0 0 0 0 0 0 0 0 0 0 0 0 127 0" result="hardAlpha"/>
<feMorphology radius="2" operator="erode" in="SourceAlpha" result="effect2_dropShadow_654_3821"/>
<feOffset dy="1"/>
<feGaussianBlur stdDeviation="2"/>
<feComposite in2="hardAlpha" operator="out"/>
<feColorMatrix type="matrix" values="0 0 0 0 0.0941176 0 0 0 0 0.152941 0 0 0 0 0.294118 0 0 0 0.02 0"/>
<feBlend mode="normal" in2="effect1_dropShadow_654_3821" result="effect2_dropShadow_654_3821"/>
<feColorMatrix in="SourceAlpha" type="matrix" values="0 0 0 0 0 0 0 0 0 0 0 0 0 0 0 0 0 0 127 0" result="hardAlpha"/>
<feOffset/>
<feGaussianBlur stdDeviation="1"/>
<feComposite in2="hardAlpha" operator="out"/>
<feColorMatrix type="matrix" values="0 0 0 0 0.878431 0 0 0 0 0.878431 0 0 0 0 0.878431 0 0 0 1 0"/>
<feBlend mode="normal" in2="effect2_dropShadow_654_3821" result="effect3_dropShadow_654_3821"/>
<feBlend mode="normal" in="SourceGraphic" in2="effect3_dropShadow_654_3821" result="shape"/>
</filter>
<clipPath id="clip0_654_3821">
<rect width="564" height="690" fill="white"/>
</clipPath>
<clipPath id="clip1_654_3821">
<rect x="64" y="96" width="799.2" height="499.5" rx="12" fill="white"/>
</clipPath>
<clipPath id="clip2_654_3821">
<rect x="70.6602" y="102.66" width="13.32" height="13.32" rx="6.66" fill="white"/>
</clipPath>
<clipPath id="clip3_654_3821">
<rect width="115.44" height="11.1" fill="white" transform="translate(90.6406 103.77)"/>
</clipPath>
<clipPath id="clip4_654_3821">
<rect width="105.45" height="11.1" fill="white" transform="translate(90.6406 103.77)"/>
</clipPath>
<clipPath id="clip5_654_3821">
<rect width="64.61" height="20" fill="white" transform="translate(90.6406 99.77)"/>
</clipPath>
<clipPath id="clip6_654_3821">
<rect width="7.77" height="7.77" fill="white" transform="translate(157.469 105.43)"/>
</clipPath>
<clipPath id="clip7_654_3821">
<rect width="7.77" height="7.77" fill="white" transform="translate(198.312 105.435)"/>
</clipPath>
<clipPath id="clip8_654_3821">
<rect width="7.76" height="7.77" fill="white" transform="translate(72.332 139.295)"/>
</clipPath>
<clipPath id="clip9_654_3821">
<rect width="7.76" height="7.77" fill="white" transform="translate(72.332 139.295)"/>
</clipPath>
<clipPath id="clip10_654_3821">
<rect width="7.77" height="7.77" fill="white" transform="translate(70.6602 164.27)"/>
</clipPath>
<clipPath id="clip11_654_3821">
<rect width="7.77" height="7.77" fill="white" transform="translate(70.6602 164.27)"/>
</clipPath>
<clipPath id="clip12_654_3821">
<rect width="7.77" height="7.76" fill="white" transform="translate(70.6602 180.9)"/>
</clipPath>
<clipPath id="clip13_654_3821">
<rect width="7.77" height="7.76" fill="white" transform="translate(70.6602 180.9)"/>
</clipPath>
<clipPath id="clip14_654_3821">
<rect width="7.77" height="7.76" fill="white" transform="translate(70.6602 197.54)"/>
</clipPath>
<clipPath id="clip15_654_3821">
<rect width="7.77" height="7.76" fill="white" transform="translate(70.6602 197.54)"/>
</clipPath>
<clipPath id="clip16_654_3821">
<rect width="7.77" height="7.77" fill="white" transform="translate(70.6602 214.16)"/>
</clipPath>
<clipPath id="clip17_654_3821">
<rect width="7.77" height="7.78" fill="white" transform="translate(70.6602 230.79)"/>
</clipPath>
<clipPath id="clip18_654_3821">
<rect width="7.77" height="7.77" fill="white" transform="translate(70.6602 247.43)"/>
</clipPath>
<clipPath id="clip19_654_3821">
<rect width="7.77" height="7.77" fill="white" transform="translate(70.6602 247.43)"/>
</clipPath>
<clipPath id="clip20_654_3821">
<rect width="7.77" height="7.76" fill="white" transform="translate(70.6602 264.05)"/>
</clipPath>
<clipPath id="clip21_654_3821">
<rect width="7.77" height="7.76" fill="white" transform="translate(70.6602 264.05)"/>
</clipPath>
<clipPath id="clip22_654_3821">
<rect x="64" y="277.35" width="150.96" height="94.28" rx="12" fill="white"/>
</clipPath>
<clipPath id="clip23_654_3821">
<rect width="7.77" height="7.77" fill="white" transform="translate(70.6602 280.69)"/>
</clipPath>
<clipPath id="clip24_654_3821">
<rect width="7.77" height="7.77" fill="white" transform="translate(200.531 280.69)"/>
</clipPath>
<clipPath id="clip25_654_3821">
<rect width="7.76" height="7.77" fill="white" transform="translate(122.219 298.98)"/>
</clipPath>
<clipPath id="clip26_654_3821">
<rect width="7.76" height="7.77" fill="white" transform="translate(122.219 318.95)"/>
</clipPath>
<clipPath id="clip27_654_3821">
<rect width="7.77" height="7.77" fill="white" transform="translate(106.121 338.92)"/>
</clipPath>
<clipPath id="clip28_654_3821">
<rect width="7.76" height="7.77" fill="white" transform="translate(122.219 358.875)"/>
</clipPath>
<clipPath id="clip29_654_3821">
<rect width="7.77" height="7.77" fill="white" transform="translate(70.6602 565.53)"/>
</clipPath>
<clipPath id="clip30_654_3821">
<rect width="7.77" height="7.77" fill="white" transform="translate(70.6602 579.96)"/>
</clipPath>
<clipPath id="clip31_654_3821">
<rect width="7.77" height="7.77" fill="white" transform="translate(70.6602 579.96)"/>
</clipPath>
<clipPath id="clip32_654_3821">
<path d="M214.961 96H851.201C857.828 96 863.201 101.373 863.201 108V583.5C863.201 590.127 857.828 595.5 851.201 595.5H214.961V96Z" fill="white"/>
</clipPath>
<clipPath id="clip33_654_3821">
<rect x="226.062" y="134.3" width="87.69" height="17.75" rx="6" fill="white"/>
</clipPath>
<clipPath id="clip34_654_3821">
<rect width="9.99" height="9.99" fill="white" transform="translate(230.504 138.18)"/>
</clipPath>
<clipPath id="clip35_654_3821">
<rect width="9.99" height="9.99" fill="white" transform="translate(230.504 138.18)"/>
</clipPath>
<clipPath id="clip36_654_3821">
<rect width="9.99" height="9.99" fill="white" transform="translate(299.324 138.18)"/>
</clipPath>
<clipPath id="clip37_654_3821">
<rect x="320.453" y="134.3" width="61.94" height="17.75" rx="6" fill="white"/>
</clipPath>
<clipPath id="clip38_654_3821">
<rect width="9.99" height="9.99" fill="white" transform="translate(324.895 138.185)"/>
</clipPath>
<clipPath id="clip39_654_3821">
<rect width="9.99" height="9.99" fill="white" transform="translate(324.895 138.185)"/>
</clipPath>
<clipPath id="clip40_654_3821">
<rect x="359.793" y="137.63" width="18.16" height="11.1" rx="5.55" fill="white"/>
</clipPath>
<clipPath id="clip41_654_3821">
<rect width="6.66" height="6.66" fill="white" transform="translate(362.023 139.68)"/>
</clipPath>
<clipPath id="clip42_654_3821">
<rect width="6.66" height="6.66" fill="white" transform="translate(362.023 139.68)"/>
</clipPath>
<clipPath id="clip43_654_3821">
<rect width="4" height="16" fill="white" transform="translate(370.902 135.01)"/>
</clipPath>
<clipPath id="clip44_654_3821">
<rect x="389.094" y="134.3" width="37.74" height="17.75" rx="6" fill="white"/>
</clipPath>
<clipPath id="clip45_654_3821">
<rect width="9.99" height="9.99" fill="white" transform="translate(393.535 138.18)"/>
</clipPath>
<clipPath id="clip46_654_3821">
<rect width="648.24" height="434.57" fill="white" transform="translate(214.961 160.93)"/>
</clipPath>
<clipPath id="clip47_654_3821">
<rect width="637.14" height="22.21" fill="white" transform="translate(226.062 160.93)"/>
</clipPath>
<clipPath id="clip48_654_3821">
<rect width="7.77" height="7.77" fill="white" transform="translate(239.383 530.01)"/>
</clipPath>
<clipPath id="clip49_654_3821">
<rect width="637.14" height="19.98" fill="white" transform="translate(226.062 544.99)"/>
</clipPath>
<clipPath id="clip50_654_3821">
<rect width="7.77" height="7.77" fill="white" transform="translate(357.594 551.1)"/>
</clipPath>
<clipPath id="clip51_654_3821">
<rect width="7.77" height="7.77" fill="white" transform="translate(501.902 551.1)"/>
</clipPath>
</defs>
</svg>
