<svg width="56" height="56" viewBox="0 0 56 56" fill="none" xmlns="http://www.w3.org/2000/svg">
<path d="M4.77242 43.2315C4.52951 43.2308 4.29289 43.1542 4.09558 43.0125C3.89826 42.8709 3.75009 42.6711 3.67174 42.4412C3.59338 42.2113 3.58875 41.9626 3.65849 41.7299C3.72823 41.4972 3.86886 41.2921 4.06076 41.1432L21.7679 27.4377C21.885 27.315 22.0275 27.2192 22.1854 27.1572C22.3434 27.0951 22.5129 27.0683 22.6823 27.0785C22.8516 27.0887 23.0167 27.1357 23.1661 27.2162C23.3154 27.2968 23.4453 27.409 23.5469 27.5449C23.6484 27.6809 23.7191 27.8373 23.7539 28.0034C23.7888 28.1694 23.787 28.3411 23.7487 28.5064C23.7104 28.6716 23.6365 28.8266 23.5322 28.9604C23.4278 29.0942 23.2956 29.2036 23.1446 29.2811L5.43742 42.9865C5.24653 43.1352 5.01413 43.2208 4.77242 43.2315ZM50.9752 42.7676C50.7174 42.7668 50.4672 42.6807 50.2635 42.5226L32.7724 28.9865C32.6406 28.8972 32.5285 28.7817 32.443 28.6474C32.3574 28.513 32.3003 28.3626 32.2752 28.2053C32.25 28.048 32.2573 27.8873 32.2966 27.7329C32.3359 27.5786 32.4064 27.434 32.5037 27.3079C32.6011 27.1818 32.7232 27.077 32.8626 27C33.0019 26.9229 33.1556 26.8752 33.3141 26.8597C33.4727 26.8443 33.6327 26.8615 33.7843 26.9102C33.9359 26.959 34.0759 27.0383 34.1958 27.1432L52.1974 41.1432C52.3928 41.2945 52.0712 41.04 52.1399 41.2773C52.2087 41.5147 52.2002 41.7677 52.1159 42C52.0316 42.2323 51.8756 42.4318 51.6706 42.5697C51.4656 42.7077 51.2221 42.777 50.9752 42.7676Z" fill="#D26300"/>
<path d="M47.8333 47.8333H8.16667C6.92899 47.8333 5.742 47.3416 4.86683 46.4665C3.99167 45.5913 3.5 44.4043 3.5 43.1666V12.8333C3.5 11.5956 3.99167 10.4086 4.86683 9.53346C5.742 8.65829 6.92899 8.16663 8.16667 8.16663H47.8333C49.071 8.16663 50.258 8.65829 51.1332 9.53346C52.0083 10.4086 52.5 11.5956 52.5 12.8333V43.1666C52.5 44.4043 52.0083 45.5913 51.1332 46.4665C50.258 47.3416 49.071 47.8333 47.8333 47.8333ZM8.16667 10.5C7.54783 10.5 6.95434 10.7458 6.51675 11.1834C6.07917 11.621 5.83333 12.2145 5.83333 12.8333V43.1666C5.83333 43.7855 6.07917 44.379 6.51675 44.8165C6.95434 45.2541 7.54783 45.5 8.16667 45.5H47.8333C48.4522 45.5 49.0457 45.2541 49.4832 44.8165C49.9208 44.379 50.1667 43.7855 50.1667 43.1666V12.8333C50.1667 12.2145 49.9208 11.621 49.4832 11.1834C49.0457 10.7458 48.4522 10.5 47.8333 10.5H8.16667Z" fill="#D26300"/>
<path d="M52.0428 14.9216L50.1644 16.3333L45.2994 20.1249L32.8861 29.8199C31.4889 30.9079 29.7686 31.4986 27.9978 31.4986C26.2269 31.4986 24.5067 30.9079 23.1094 29.8199L3.95277 14.9216C3.72935 14.7259 3.58895 14.4525 3.56018 14.1569C3.53141 13.8613 3.61644 13.5659 3.79793 13.3309C3.97943 13.0958 4.24373 12.9388 4.53697 12.8919C4.83021 12.8449 5.13031 12.9116 5.3761 13.0783L24.4978 27.9999C25.5075 28.7572 26.7356 29.1666 27.9978 29.1666C29.2599 29.1666 30.488 28.7572 31.4978 27.9999L46.1278 16.5666L50.1644 13.4283L50.6194 13.0783C50.7393 12.9733 50.8793 12.8941 51.0309 12.8453C51.1825 12.7965 51.2179 12.83 51.3764 12.8454C51.535 12.8609 51.6886 12.9086 51.828 12.9857C51.9674 13.0627 52.0895 13.1675 52.1868 13.2936C52.2842 13.4196 52.3547 13.5643 52.394 13.7186C52.4333 13.873 52.4406 14.0337 52.4154 14.191C52.3903 14.3483 52.3332 14.4987 52.2476 14.6331C52.1621 14.7674 52.1746 14.8322 52.0428 14.9216Z" fill="#D26300"/>
<path opacity="0.5" d="M36.4091 35.245C33.1632 38.5 29.3062 41.0815 25.0597 42.8414C20.8132 44.6013 16.2608 45.5048 11.6641 45.5H50.1641V16.3334L45.2991 20.125C43.6728 25.8404 40.6126 31.0451 36.4091 35.245Z" fill="#D26300"/>
</svg>
