<svg width="18" height="19" viewBox="0 0 18 19" fill="none" xmlns="http://www.w3.org/2000/svg">
<path d="M10.125 7.25C9.82663 7.25 9.54048 7.13147 9.3295 6.9205C9.11853 6.70952 9 6.42337 9 6.125C9 5.82663 9.11853 5.54048 9.3295 5.3295C9.54048 5.11853 9.82663 5 10.125 5C10.4234 5 10.7095 5.11853 10.9205 5.3295C11.1315 5.54048 11.25 5.82663 11.25 6.125C11.25 6.42337 11.1315 6.70952 10.9205 6.9205C10.7095 7.13147 10.4234 7.25 10.125 7.25Z" fill="#D8D8FF"/>
<path d="M14.25 2H3.75C3.15381 2.00178 2.58255 2.23941 2.16098 2.66098C1.73941 3.08255 1.50178 3.65381 1.5 4.25V10.895L4.41 7.985C4.83878 7.5769 5.40806 7.34929 6 7.34929C6.59194 7.34929 7.16122 7.5769 7.59 7.985L9.74325 10.1503L10.4092 9.48425C10.832 9.0639 11.4039 8.82795 12 8.82795C12.5961 8.82795 13.168 9.0639 13.5908 9.48425L16.5 12.395V4.25C16.4982 3.65381 16.2606 3.08255 15.839 2.66098C15.4175 2.23941 14.8462 2.00178 14.25 2ZM10.125 7.25C9.82663 7.25 9.54048 7.13147 9.3295 6.9205C9.11853 6.70952 9 6.42337 9 6.125C9 5.82663 9.11853 5.54048 9.3295 5.3295C9.54048 5.11853 9.82663 5 10.125 5C10.4234 5 10.7095 5.11853 10.9205 5.3295C11.1315 5.54048 11.25 5.82663 11.25 6.125C11.25 6.42337 11.1315 6.70952 10.9205 6.9205C10.7095 7.13147 10.4234 7.25 10.125 7.25Z" fill="#B2B1FF"/>
<path d="M7.59 7.98502C7.16122 7.57691 6.59194 7.3493 6 7.3493C5.40806 7.3493 4.83878 7.57691 4.41 7.98502L1.5 10.895V14.75C1.50178 15.3462 1.73941 15.9175 2.16098 16.339C2.58255 16.7606 3.15381 16.9982 3.75 17H14.25C14.8613 17 15.4463 16.7503 15.87 16.31L7.59 7.98502Z" fill="#6563FF"/>
<path d="M16.4989 12.3935L13.5897 9.48424C13.167 9.06389 12.5951 8.82794 11.9989 8.82794C11.4028 8.82794 10.8309 9.06389 10.4082 9.48424L9.74219 10.1502L15.8659 16.307C16.2724 15.8907 16.4997 15.332 16.4989 14.75V12.3935Z" fill="#D8D8FF"/>
</svg>
