<svg width="36" height="36" viewBox="0 0 36 36" fill="none" xmlns="http://www.w3.org/2000/svg">
<path d="M27 12V9C27 6.61305 26.0518 4.32387 24.364 2.63604C22.6761 0.948211 20.3869 0 18 0C15.6131 0 13.3239 0.948211 11.636 2.63604C9.94821 4.32387 9 6.61305 9 9V12C7.80762 12.0036 6.6651 12.4788 5.82195 13.322C4.97881 14.1651 4.50356 15.3076 4.5 16.5V27C4.5 29.3869 5.44821 31.6761 7.13604 33.364C8.82387 35.0518 11.1131 36 13.5 36H22.5C24.8869 36 27.1761 35.0518 28.864 33.364C30.5518 31.6761 31.5 29.3869 31.5 27V16.5C31.4964 15.3076 31.0212 14.1651 30.178 13.322C29.3349 12.4788 28.1924 12.0036 27 12ZM12 9C12 7.4087 12.6321 5.88258 13.7574 4.75736C14.8826 3.63214 16.4087 3 18 3C19.5913 3 21.1174 3.63214 22.2426 4.75736C23.3679 5.88258 24 7.4087 24 9V12H12V9ZM19.5 27C19.5 27.3978 19.342 27.7794 19.0607 28.0607C18.7794 28.342 18.3978 28.5 18 28.5C17.6022 28.5 17.2206 28.342 16.9393 28.0607C16.658 27.7794 16.5 27.3978 16.5 27V21C16.5 20.6022 16.658 20.2206 16.9393 19.9393C17.2206 19.658 17.6022 19.5 18 19.5C18.3978 19.5 18.7794 19.658 19.0607 19.9393C19.342 20.2206 19.5 20.6022 19.5 21V27Z" fill="black"/>
</svg>
