<svg width="18" height="19" viewBox="0 0 18 19" fill="none" xmlns="http://www.w3.org/2000/svg">
<g clip-path="url(#clip0_2052_9806)">
<path d="M16.3703 1.4V15.1813H1.63281V4.38125L5.51406 0.5H15.4984C15.9766 0.5 16.3703 0.921875 16.3703 1.4Z" fill="#EFF2F3"/>
<path d="M4.69766 4.38125H1.66016L5.51328 0.5L5.48516 3.5375C5.51328 4.01562 5.14766 4.38125 4.69766 4.38125Z" fill="#DADEDE"/>
<path d="M10.4328 8.37503C9.61719 7.58753 9.02656 6.68753 9.02656 6.68753C9.25156 6.35003 9.78594 4.4094 8.97031 3.8469C8.15469 3.2844 7.73281 4.32503 7.73281 4.32503C7.36719 5.61878 8.23906 6.80003 8.23906 6.80003L7.25469 8.96565C7.14219 8.96565 4.02031 10.175 5.08906 11.6657C6.18594 13.1563 7.70469 9.55628 7.70469 9.55628C8.29531 9.3594 10.0953 9.10628 10.0953 9.10628C10.7984 10.0625 11.6422 10.3719 11.6422 10.3719C12.9359 10.7094 13.0766 9.64065 13.0766 9.64065C13.1047 8.2344 10.4328 8.37503 10.4328 8.37503ZM5.62344 11.1594C5.59531 11.1594 5.59531 11.1313 5.59531 11.1313C5.42656 10.7375 6.72031 9.97815 6.72031 9.97815C6.72031 9.97815 6.01719 11.3282 5.62344 11.1594ZM8.54844 4.35315C8.91406 4.69065 8.60469 5.84378 8.60469 5.84378C8.60469 5.84378 8.18281 4.69065 8.54844 4.35315ZM8.21094 8.71253L8.71719 7.47503L9.50469 8.43128L8.21094 8.71253ZM12.3734 9.61253C12.1484 9.97815 11.2203 9.19065 11.1359 9.10628C11.2766 9.10628 12.4859 9.19065 12.3734 9.61253ZM16.3672 14.2813V17.6C16.3672 18.0782 15.9734 18.5 15.4672 18.5H2.50156C2.02344 18.5 1.60156 18.1063 1.60156 17.6V14.2813H16.3672Z" fill="#F2786B"/>
<path d="M7.84531 15.7437C7.84531 15.9687 7.76094 16.1375 7.62031 16.2781C7.47969 16.3906 7.25469 16.4469 6.97344 16.4469H6.74844V17.2625H6.38281V15.0969H7.02969C7.31094 15.0969 7.50781 15.1531 7.64844 15.2656C7.78906 15.3781 7.84531 15.5187 7.84531 15.7437ZM6.77656 16.1656H6.97344C7.14219 16.1656 7.28281 16.1375 7.36719 16.0812C7.45156 16.025 7.50781 15.9125 7.50781 15.7719C7.50781 15.6594 7.47969 15.5469 7.39531 15.4906C7.31094 15.4344 7.19844 15.4062 7.02969 15.4062H6.77656V16.1656ZM10.0672 16.1656C10.0672 16.5312 9.95469 16.8125 9.75781 16.9812C9.56094 17.1781 9.27969 17.2625 8.88594 17.2625H8.26719V15.0969H8.94219C9.27969 15.0969 9.56094 15.1812 9.75781 15.3781C9.95469 15.5469 10.0672 15.8281 10.0672 16.1656ZM9.67344 16.1656C9.67344 15.6312 9.42031 15.3781 8.94219 15.3781H8.63281V16.9531H8.88594C9.42031 16.9812 9.67344 16.7 9.67344 16.1656ZM10.8828 17.2625H10.5172V15.0969H11.7547V15.4062H10.8828V16.0812H11.6984V16.3906H10.8828V17.2625Z" fill="#EFF2F3"/>
</g>
<defs>
<clipPath id="clip0_2052_9806">
<rect width="18" height="18" fill="white" transform="translate(0 0.5)"/>
</clipPath>
</defs>
</svg>
