<svg width="18" height="19" viewBox="0 0 18 19" fill="none" xmlns="http://www.w3.org/2000/svg">
<path fill-rule="evenodd" clip-rule="evenodd" d="M3.76562 1.39539H12.2737L14.7882 3.93982V16.2457H3.76562V1.39539Z" fill="white"/>
<path d="M14.7871 16.4869H3.76457C3.7329 16.4869 3.70154 16.4807 3.67227 16.4685C3.64301 16.4564 3.61642 16.4387 3.59403 16.4163C3.57164 16.3939 3.55388 16.3673 3.54176 16.338C3.52965 16.3087 3.52342 16.2774 3.52344 16.2457V1.39541C3.52344 1.26217 3.63133 1.15424 3.76457 1.15424H12.2727C12.3046 1.15423 12.3362 1.16056 12.3656 1.17286C12.395 1.18516 12.4217 1.20318 12.4441 1.22588L14.9587 3.77032C15.0033 3.8155 15.0283 3.8764 15.0284 3.93988V16.2457C15.0284 16.2774 15.0222 16.3088 15.01 16.338C14.9979 16.3673 14.9801 16.3939 14.9577 16.4163C14.9353 16.4387 14.9087 16.4565 14.8794 16.4686C14.8502 16.4807 14.8188 16.4869 14.7871 16.4869ZM4.00575 16.0046H14.5461V4.03891L12.1718 1.63658H4.00575V16.0046Z" fill="#4C8CF9"/>
<path fill-rule="evenodd" clip-rule="evenodd" d="M4.57031 6.74432H15.5929V10.4569H4.57031V6.74432Z" fill="#4C8CF9"/>
<path d="M7.61909 9.58674H7.23047V9.24136H7.61909V9.58674ZM8.40574 8.87257V9.58674H8.01712V7.61932H8.79432C9.01915 7.61932 9.1925 7.67596 9.32346 7.78951C9.44995 7.90778 9.51541 8.05909 9.51541 8.2483C9.51541 8.43737 9.44995 8.58886 9.32346 8.70228C9.19247 8.81583 9.01911 8.87261 8.79432 8.87261H8.40574V8.87257ZM8.40574 8.56995H8.79436C8.90211 8.56995 8.98642 8.53673 9.04256 8.47991C9.09881 8.4186 9.12683 8.3428 9.12683 8.24827C9.12683 8.15377 9.09878 8.07794 9.04256 8.01662C8.98642 7.955 8.90211 7.92195 8.79436 7.92195H8.40574V8.56995ZM10.1944 8.87257V9.58674H9.80113V7.61932H10.5785C10.803 7.61932 10.9811 7.67596 11.1076 7.78951C11.2339 7.90778 11.2996 8.05909 11.2996 8.2483C11.2996 8.43737 11.2339 8.58886 11.1076 8.70228C10.9811 8.81583 10.803 8.87261 10.5785 8.87261H10.1944V8.87257ZM10.1944 8.56995H10.5785C10.6862 8.56995 10.7705 8.53673 10.8266 8.47991C10.8828 8.4186 10.9109 8.3428 10.9109 8.24827C10.9109 8.15377 10.8828 8.07794 10.8266 8.01662C10.7705 7.955 10.6862 7.92195 10.5785 7.92195H10.1944V8.56995ZM12.9337 7.92195H12.3811V9.58674H11.9926V7.92195H11.4448V7.61932H12.9337V7.92195Z" fill="#FEFEFE"/>
<path d="M9.26213 5.65011C8.76952 5.65011 8.34139 5.47169 8.1166 5.17244C8.09758 5.14712 8.08373 5.1183 8.07584 5.08763C8.06796 5.05696 8.06619 5.02503 8.07065 4.99368C8.07511 4.96232 8.0857 4.93215 8.10182 4.90489C8.11793 4.87763 8.13927 4.85381 8.16459 4.8348C8.2708 4.75464 8.42222 4.77623 8.5023 4.88272C8.63442 5.05853 8.92551 5.16773 9.26213 5.16773H9.26277C9.60347 5.16759 9.91804 5.05305 10.0458 4.88286C10.0648 4.8575 10.0886 4.83614 10.1158 4.81999C10.143 4.80384 10.1732 4.79322 10.2045 4.78874C10.2359 4.78426 10.2678 4.786 10.2985 4.79388C10.3292 4.80175 10.358 4.8156 10.3833 4.83462C10.4345 4.87299 10.4683 4.93011 10.4774 4.99343C10.4865 5.05674 10.47 5.12107 10.4317 5.17226C10.2107 5.4668 9.76301 5.6499 9.26312 5.65007L9.26213 5.65011ZM5.05991 8.70223H5.05724C3.59217 8.68641 2.7229 8.30395 2.47374 7.56546C2.14911 6.60351 3.07207 5.35894 3.61449 4.93647C3.71961 4.85484 3.87124 4.87354 3.95301 4.97859C3.99232 5.02907 4.00997 5.09309 4.00209 5.15658C3.99422 5.22007 3.96145 5.27784 3.911 5.31718C3.44479 5.68013 2.69734 6.71935 2.93077 7.41123C3.15071 8.06295 4.21138 8.21071 5.0624 8.21989C5.12637 8.22022 5.18758 8.24595 5.23257 8.29141C5.27757 8.33687 5.30266 8.39835 5.30233 8.46231C5.302 8.52627 5.27627 8.58748 5.23081 8.63248C5.18535 8.67747 5.12387 8.70256 5.05991 8.70223Z" fill="#4C8CF9"/>
<path fill-rule="evenodd" clip-rule="evenodd" d="M12.2734 3.93982H14.7879L12.2734 1.39539V3.93982Z" fill="#D4E4FF"/>
<path d="M14.7882 4.181H12.2737C12.1405 4.181 12.0326 4.07307 12.0326 3.93983V1.39539C12.0326 1.34757 12.0468 1.30082 12.0734 1.26109C12.1 1.22137 12.1379 1.19046 12.1821 1.17229C12.2263 1.15406 12.275 1.14941 12.3218 1.15895C12.3687 1.16848 12.4116 1.19177 12.4452 1.22583L14.9598 3.77027C14.9932 3.80412 15.0159 3.84711 15.0249 3.89381C15.034 3.94051 15.0291 3.98886 15.0107 4.03275C14.9924 4.07665 14.9615 4.11415 14.9219 4.14052C14.8823 4.1669 14.8358 4.18098 14.7882 4.181ZM12.5149 3.69865H14.2108L12.5149 1.98257V3.69865ZM8.41567 17.8459C8.40245 17.8459 8.38905 17.845 8.37548 17.8427L7.58415 17.7103C7.52786 17.7008 7.47675 17.6717 7.43988 17.6282C7.40302 17.5846 7.3828 17.5294 7.38281 17.4723V16.2456C7.3828 16.214 7.38903 16.1826 7.40115 16.1533C7.41326 16.1241 7.43103 16.0975 7.45342 16.0751C7.47581 16.0527 7.5024 16.035 7.53166 16.0228C7.56092 16.0107 7.59228 16.0045 7.62395 16.0045C7.75723 16.0045 7.86512 16.1124 7.86512 16.2456V17.2681L8.45511 17.3668C8.5182 17.3774 8.57451 17.4126 8.61165 17.4647C8.64879 17.5167 8.66371 17.5815 8.65315 17.6445C8.64378 17.7008 8.61478 17.7519 8.5713 17.7887C8.52782 17.8256 8.47268 17.8459 8.41567 17.8459ZM11.436 17.8459C11.4225 17.846 11.409 17.8449 11.3957 17.8427L10.6045 17.7103C10.5482 17.7009 10.497 17.6718 10.4602 17.6282C10.4233 17.5846 10.4031 17.5294 10.4031 17.4723V16.2456C10.4031 16.1124 10.511 16.0045 10.6443 16.0045C10.7775 16.0045 10.8854 16.1124 10.8854 16.2456V17.2681L11.4754 17.3668C11.5384 17.3774 11.5948 17.4126 11.6319 17.4647C11.6691 17.5167 11.684 17.5814 11.6735 17.6445C11.6641 17.7008 11.6351 17.7518 11.5916 17.7887C11.5481 17.8256 11.493 17.8458 11.436 17.8459Z" fill="#4C8CF9"/>
<path fill-rule="evenodd" clip-rule="evenodd" d="M10.2248 2.7953C10.4448 2.73381 10.6884 2.82371 10.8055 3.03647C10.9507 3.28232 10.8664 3.60396 10.6181 3.74593C10.37 3.88771 10.0564 3.8027 9.91571 3.55671C9.80345 3.35815 9.83147 3.12166 9.96735 2.95614C10.0141 3.02227 10.0983 3.04129 10.1687 3.00339C10.239 2.96078 10.2671 2.86625 10.2248 2.7953ZM8.04283 2.7953C8.15332 2.76434 8.27099 2.77126 8.37708 2.81497C8.48317 2.85868 8.57157 2.93666 8.62818 3.03647C8.76859 3.28232 8.68432 3.60396 8.43612 3.74593C8.1927 3.88771 7.87425 3.8027 7.73373 3.55671C7.62138 3.35815 7.64947 3.12166 7.78527 2.95614C7.83207 3.02227 7.92101 3.04129 7.98661 3.00339C8.06153 2.96078 8.08491 2.86625 8.04283 2.7953Z" fill="#4C8CF9"/>
<path d="M11.0719 15.8577C11.0337 15.8578 10.996 15.8488 10.962 15.8314C10.928 15.814 10.8986 15.7887 10.8762 15.7577L10.0708 14.6417C10.0334 14.5899 10.0181 14.5253 10.0283 14.4621C10.0385 14.399 10.0733 14.3425 10.1252 14.3051C10.1508 14.2865 10.1799 14.2732 10.2107 14.2659C10.2416 14.2585 10.2735 14.2574 10.3048 14.2624C10.3361 14.2675 10.3661 14.2786 10.3931 14.2953C10.42 14.3119 10.4434 14.3337 10.462 14.3594L11.2673 15.4754C11.2858 15.501 11.2991 15.5301 11.3064 15.5609C11.3137 15.5918 11.3149 15.6237 11.3098 15.655C11.3048 15.6862 11.2936 15.7162 11.277 15.7432C11.2604 15.7701 11.2386 15.7935 11.2129 15.812C11.1719 15.8417 11.1225 15.8577 11.0719 15.8577ZM7.47543 15.8577C7.42478 15.8577 7.37542 15.8418 7.33442 15.812C7.30873 15.7935 7.28695 15.7701 7.27032 15.7431C7.25368 15.7162 7.24252 15.6862 7.23746 15.655C7.23241 15.6237 7.23357 15.5918 7.24086 15.5609C7.24816 15.5301 7.26146 15.5011 7.27999 15.4754L8.08546 14.3594C8.12291 14.3075 8.17944 14.2727 8.24259 14.2625C8.30575 14.2523 8.37036 14.2676 8.42222 14.3051C8.4479 14.3236 8.46968 14.347 8.48632 14.3739C8.50296 14.4009 8.51412 14.4309 8.51917 14.4621C8.52423 14.4934 8.52307 14.5253 8.51577 14.5561C8.50848 14.587 8.49518 14.616 8.47664 14.6417L7.67118 15.7577C7.64881 15.7887 7.6194 15.8139 7.58536 15.8313C7.55133 15.8487 7.51365 15.8577 7.47543 15.8577ZM9.27371 11.9087C9.24203 11.9087 9.21067 11.9025 9.1814 11.8903C9.15214 11.8782 9.12555 11.8605 9.10315 11.8381C9.08076 11.8157 9.06299 11.7891 9.05087 11.7598C9.03876 11.7306 9.03252 11.6992 9.03253 11.6675V10.9771C9.03253 10.8438 9.14046 10.736 9.27371 10.736C9.40695 10.736 9.51488 10.8438 9.51488 10.9771V11.6675C9.51488 11.8008 9.40695 11.9087 9.27371 11.9087Z" fill="#4C8CF9"/>
<path fill-rule="evenodd" clip-rule="evenodd" d="M12.1882 11.3223H6.36328V14.5005H12.1882V13.6444V11.3223Z" fill="#D4E4FF"/>
<path d="M12.1872 14.7417H6.36227C6.33059 14.7417 6.29923 14.7355 6.26996 14.7234C6.2407 14.7113 6.21411 14.6935 6.19171 14.6711C6.16932 14.6487 6.15155 14.6221 6.13943 14.5929C6.12732 14.5636 6.12108 14.5323 6.12109 14.5006V11.3223C6.12109 11.2906 6.12732 11.2593 6.13944 11.23C6.15156 11.2008 6.16933 11.1742 6.19172 11.1518C6.21412 11.1294 6.24071 11.1116 6.26997 11.0995C6.29923 11.0874 6.33059 11.0812 6.36227 11.0812H12.1872C12.3204 11.0812 12.4285 11.1891 12.4285 11.3223V14.5006C12.4285 14.5323 12.4222 14.5636 12.4101 14.5929C12.398 14.6222 12.3802 14.6487 12.3578 14.6711C12.3354 14.6935 12.3088 14.7113 12.2795 14.7234C12.2502 14.7355 12.2188 14.7417 12.1872 14.7417ZM6.60344 14.2594H11.9462V11.5635H6.60344V14.2594Z" fill="#4C8CF9"/>
</svg>
