<svg width="18" height="19" viewBox="0 0 18 19" fill="none" xmlns="http://www.w3.org/2000/svg">
<path d="M7.85159 10.0738C8.06084 10.1823 8.28753 10.2358 8.51422 10.2358C8.80616 10.2358 9.09584 10.1463 9.34447 9.97084L11.0505 8.76484C11.4319 8.4954 11.6592 8.05609 11.6592 7.58921C11.6592 7.12234 11.4319 6.68359 11.0505 6.41415L9.34447 5.20815C8.90347 4.89596 8.33028 4.85659 7.85216 5.10521C7.37234 5.35327 7.07422 5.84321 7.07422 6.38321V8.79465C7.07366 9.33577 7.37178 9.82571 7.85159 10.0738ZM8.08672 6.38434C8.08672 6.14977 8.24759 6.04121 8.31678 6.00521C8.35503 5.98496 8.42759 5.95515 8.51759 5.95515C8.59016 5.95515 8.67341 5.97484 8.75947 6.03559L10.4655 7.24159C10.5803 7.32259 10.6461 7.44971 10.6461 7.58977C10.6461 7.7304 10.5803 7.85752 10.4655 7.93852L8.75947 9.14452C8.56653 9.28009 8.38597 9.2109 8.31678 9.1749C8.24759 9.13946 8.08672 9.03034 8.08672 8.79577V6.38434Z" fill="#F98A17"/>
<path d="M14.6234 1.72852H3.37344C1.85356 1.72852 0.617188 2.96489 0.617188 4.48477V14.5158C0.617188 16.0357 1.85356 17.2721 3.37344 17.2721H14.6234C16.1433 17.2721 17.3797 16.0357 17.3797 14.5158V4.4842C17.3797 2.96489 16.1433 1.72852 14.6234 1.72852ZM3.37344 2.74045H14.6234C15.5848 2.74045 16.3672 3.52289 16.3672 4.4842V12.4391H1.62969V4.4842C1.62969 3.52289 2.41213 2.74045 3.37344 2.74045ZM8.77175 16.2596L10.394 13.4516H13.1761L11.5533 16.2596H8.77175ZM4.82019 16.2596L6.443 13.4516H9.22513L7.60288 16.2596H4.82019ZM1.62969 14.5158V13.4516H5.27356L3.65075 16.2596H3.37344C2.41213 16.2596 1.62969 15.4771 1.62969 14.5158ZM14.6234 16.2596H12.7233L14.3461 13.4516H16.3672V14.5158C16.3672 15.4771 15.5848 16.2596 14.6234 16.2596Z" fill="#6621BA"/>
</svg>
